<?xml version="1.0" encoding="UTF-8" ?>
<!DOCTYPE svg PUBLIC "-//W3C//DTD SVG 1.1//EN" "http://www.w3.org/Graphics/SVG/1.1/DTD/svg11.dtd">
<svg width="2880pt" height="350pt" viewBox="0 0 2880 350" version="1.1" xmlns="http://www.w3.org/2000/svg">
<g id="#ffffffff">
<path fill="#ffffff" opacity="1.00" d=" M 1435.60 0.00 L 1439.39 0.00 C 1439.53 5.24 1439.43 10.49 1439.53 15.73 C 1439.75 15.66 1440.18 15.54 1440.40 15.47 C 1440.15 21.86 1440.53 28.24 1440.51 34.63 L 1441.81 34.25 L 1441.34 35.53 C 1446.73 35.70 1452.13 35.54 1457.53 35.66 C 1457.43 36.26 1457.35 36.87 1457.29 37.48 L 1458.32 37.54 C 1458.20 42.60 1458.24 47.66 1458.26 52.72 L 1459.56 52.34 L 1459.36 53.34 C 1461.72 53.79 1464.10 54.32 1466.50 54.66 C 1466.64 61.97 1466.59 69.28 1466.53 76.59 L 1467.64 76.62 C 1467.59 77.07 1467.49 77.98 1467.44 78.44 C 1469.73 78.56 1472.06 78.66 1474.39 78.74 C 1474.93 103.47 1474.46 128.23 1474.62 152.97 C 1474.58 193.85 1474.70 234.74 1474.56 275.63 C 1475.56 275.63 1477.56 275.63 1478.56 275.63 L 1478.32 274.40 C 1478.66 274.48 1479.32 274.64 1479.66 274.72 L 1479.69 273.47 L 1481.49 273.69 L 1481.53 272.34 C 1481.88 272.34 1482.58 272.34 1482.93 272.34 C 1483.48 271.31 1484.30 270.58 1485.40 270.16 L 1485.54 269.39 C 1485.87 269.36 1486.54 269.30 1486.87 269.27 C 1487.54 268.39 1488.38 267.69 1489.39 267.18 L 1489.59 266.83 C 1491.51 265.70 1493.33 264.41 1495.03 262.96 C 1495.95 262.33 1496.88 261.70 1497.85 261.09 L 1497.32 259.72 C 1497.65 259.70 1498.31 259.65 1498.64 259.63 C 1498.65 226.21 1498.82 192.77 1498.55 159.35 L 1496.73 159.52 L 1496.61 158.47 C 1494.88 158.49 1493.20 158.50 1491.50 158.49 C 1491.53 157.16 1491.58 155.84 1491.65 154.51 C 1492.11 154.56 1493.02 154.65 1493.48 154.70 L 1493.56 153.31 C 1494.02 153.39 1494.95 153.55 1495.42 153.63 L 1495.36 152.75 C 1497.12 151.62 1498.87 150.44 1500.64 149.30 C 1500.64 149.06 1500.65 148.59 1500.65 148.35 L 1501.91 148.55 C 1502.63 147.63 1503.45 146.80 1504.38 146.07 L 1504.35 145.34 L 1505.56 145.59 C 1505.64 140.87 1505.61 136.14 1505.53 131.43 L 1506.55 131.50 C 1506.49 130.99 1506.38 129.98 1506.32 129.48 C 1509.80 129.40 1513.29 129.43 1516.78 129.55 C 1516.67 130.04 1516.44 131.01 1516.32 131.50 L 1517.44 131.30 C 1517.47 132.67 1517.53 134.05 1517.61 135.43 C 1518.87 135.38 1520.14 135.34 1521.45 135.29 C 1521.43 134.93 1521.40 134.22 1521.38 133.86 C 1522.41 133.32 1523.46 132.78 1524.54 132.24 L 1524.51 131.33 C 1524.86 131.34 1525.56 131.36 1525.91 131.37 C 1526.83 130.34 1527.79 129.32 1528.77 128.32 C 1529.21 128.36 1530.07 128.44 1530.50 128.48 C 1530.49 127.99 1530.47 127.03 1530.45 126.55 C 1533.51 126.51 1538.53 124.68 1539.99 128.48 C 1540.36 128.44 1541.11 128.36 1541.49 128.32 L 1541.48 129.55 C 1541.81 129.59 1542.49 129.66 1542.82 129.70 C 1545.35 132.21 1548.65 133.76 1551.21 136.26 C 1551.54 136.29 1552.22 136.34 1552.55 136.37 L 1552.56 137.67 C 1552.89 137.63 1553.54 137.56 1553.86 137.52 C 1556.51 139.88 1559.16 142.36 1562.44 143.84 L 1562.41 144.68 L 1563.70 144.39 L 1563.54 145.79 C 1564.00 145.67 1564.92 145.43 1565.39 145.31 L 1565.45 146.14 C 1567.07 147.26 1568.60 148.52 1570.12 149.80 C 1570.53 150.03 1571.33 150.49 1571.74 150.72 L 1571.53 151.73 C 1572.01 151.62 1572.95 151.40 1573.43 151.28 L 1573.47 152.66 C 1573.95 152.61 1574.90 152.51 1575.37 152.46 L 1575.34 153.76 L 1576.63 153.41 L 1576.48 154.71 C 1576.96 154.65 1577.92 154.55 1578.41 154.49 C 1578.46 155.48 1578.57 157.45 1578.63 158.44 C 1576.27 158.50 1573.94 158.59 1571.62 158.70 C 1571.59 159.44 1571.54 160.94 1571.52 161.68 C 1571.30 161.62 1570.86 161.49 1570.64 161.43 C 1570.75 176.14 1570.79 190.86 1570.62 205.57 C 1570.83 205.53 1571.26 205.43 1571.48 205.38 C 1571.51 206.16 1571.58 207.74 1571.62 208.53 C 1572.08 208.47 1573.02 208.35 1573.48 208.29 L 1573.40 209.55 C 1574.20 209.55 1575.82 209.56 1576.63 209.56 L 1576.35 210.49 C 1577.23 210.49 1578.13 210.50 1579.06 210.51 C 1579.92 210.85 1581.64 211.54 1582.50 211.89 L 1582.39 212.39 C 1584.81 212.88 1587.21 213.43 1589.70 213.69 L 1589.49 214.71 C 1589.99 214.58 1591.00 214.32 1591.51 214.19 L 1591.43 215.39 C 1592.30 215.45 1593.19 215.52 1594.10 215.59 C 1595.59 216.02 1597.11 216.43 1598.65 216.81 L 1598.58 217.87 C 1599.03 217.66 1599.94 217.23 1600.40 217.02 C 1600.43 217.38 1600.49 218.11 1600.52 218.47 C 1601.32 218.45 1602.90 218.43 1603.69 218.41 C 1603.63 218.65 1603.52 219.11 1603.46 219.35 C 1604.50 219.38 1606.58 219.43 1607.62 219.46 L 1607.59 220.69 C 1607.93 220.62 1608.60 220.46 1608.93 220.38 C 1610.23 221.10 1611.71 221.45 1613.21 221.62 C 1614.87 222.14 1616.54 222.74 1618.11 223.62 C 1618.44 223.52 1619.10 223.31 1619.43 223.21 C 1619.43 223.52 1619.44 224.13 1619.44 224.44 C 1621.11 224.49 1622.81 224.55 1624.52 224.61 L 1624.62 225.81 C 1625.07 225.63 1625.97 225.27 1626.42 225.09 C 1626.48 225.50 1626.61 226.32 1626.68 226.73 L 1628.40 226.15 L 1628.49 227.38 C 1629.16 227.40 1630.49 227.44 1631.16 227.46 C 1632.47 227.88 1633.74 228.33 1635.09 228.80 C 1636.57 230.70 1639.14 230.30 1641.29 230.56 C 1642.71 230.95 1644.14 231.34 1645.60 231.73 L 1645.60 232.86 C 1646.08 232.66 1647.03 232.26 1647.51 232.06 L 1647.42 233.36 C 1648.67 233.39 1649.98 233.43 1651.28 233.47 C 1652.54 234.10 1653.86 234.74 1655.16 235.41 C 1655.51 235.37 1656.22 235.30 1656.57 235.26 L 1656.62 236.29 C 1657.60 236.33 1659.54 236.40 1660.51 236.44 C 1661.69 237.74 1662.84 239.08 1663.90 240.50 L 1664.64 240.62 C 1664.54 241.08 1664.36 241.99 1664.26 242.45 L 1665.62 242.37 L 1665.33 243.62 L 1666.15 243.62 C 1667.37 245.91 1668.63 248.18 1669.49 250.65 C 1667.10 250.68 1664.77 250.66 1662.42 250.59 L 1662.72 251.76 L 1661.29 251.53 C 1661.42 252.03 1661.68 253.03 1661.81 253.53 L 1660.72 253.55 C 1660.80 260.18 1660.81 266.82 1660.71 273.46 L 1661.57 273.33 C 1661.57 274.11 1661.59 275.67 1661.60 276.45 C 1667.57 276.80 1673.56 276.74 1679.54 276.50 C 1679.60 258.48 1679.55 240.46 1679.56 222.43 C 1676.51 222.27 1673.47 222.26 1670.43 222.29 C 1670.52 221.86 1670.69 221.02 1670.78 220.60 C 1670.28 220.45 1669.27 220.15 1668.77 220.00 C 1669.26 219.85 1670.24 219.56 1670.72 219.41 C 1670.62 218.94 1670.40 218.01 1670.29 217.55 L 1671.72 217.70 L 1671.33 216.36 L 1672.12 216.51 C 1672.51 215.08 1673.32 213.82 1674.35 212.75 C 1674.34 212.45 1674.33 211.86 1674.33 211.56 L 1675.68 211.38 C 1675.57 210.91 1675.36 209.98 1675.25 209.52 L 1676.27 209.56 C 1677.15 207.89 1678.07 206.22 1678.89 204.50 L 1679.30 204.58 C 1680.15 202.93 1680.99 201.27 1681.80 199.59 C 1681.94 199.59 1682.21 199.58 1682.34 199.58 C 1682.76 198.51 1683.19 197.44 1683.64 196.37 L 1684.09 196.43 C 1684.42 194.99 1684.97 193.59 1686.42 192.92 C 1686.41 192.66 1686.38 192.13 1686.37 191.87 C 1687.22 190.46 1688.15 189.05 1689.32 187.86 C 1689.33 187.51 1689.34 186.83 1689.34 186.48 L 1690.69 186.37 C 1690.57 185.91 1690.33 184.98 1690.21 184.52 L 1691.31 184.62 C 1691.72 183.53 1692.16 182.45 1692.62 181.36 L 1693.09 181.42 C 1693.41 179.97 1693.98 178.59 1695.46 177.97 C 1695.42 177.61 1695.35 176.89 1695.32 176.53 L 1696.04 176.39 C 1697.86 172.48 1700.33 168.92 1702.56 165.24 C 1702.51 165.00 1702.42 164.53 1702.38 164.29 L 1703.67 164.48 L 1703.67 163.19 C 1704.63 162.20 1705.23 160.97 1705.80 159.72 C 1706.51 158.45 1707.25 157.20 1708.06 155.97 C 1709.34 154.37 1710.37 152.56 1710.86 150.54 L 1711.72 150.51 C 1711.67 150.02 1711.58 149.04 1711.53 148.55 C 1711.98 148.54 1712.89 148.51 1713.35 148.49 C 1713.39 147.13 1713.45 145.77 1713.53 144.41 C 1713.74 144.44 1714.16 144.49 1714.37 144.52 C 1714.31 142.83 1714.32 141.15 1714.34 139.46 L 1713.76 139.66 C 1713.43 139.28 1712.77 138.51 1712.45 138.13 L 1712.44 137.43 C 1711.98 137.48 1711.05 137.57 1710.59 137.62 C 1710.54 136.81 1710.45 135.18 1710.40 134.37 L 1711.63 134.61 L 1711.50 133.29 C 1711.96 133.35 1712.87 133.47 1713.33 133.54 C 1713.38 132.76 1713.49 131.21 1713.54 130.43 L 1714.65 130.54 L 1714.36 129.27 C 1715.43 129.33 1717.59 129.44 1718.66 129.49 C 1718.61 129.98 1718.49 130.97 1718.44 131.47 L 1719.67 131.52 C 1719.62 131.91 1719.52 132.68 1719.47 133.07 C 1721.85 133.34 1721.59 135.68 1721.91 137.51 C 1721.31 137.56 1720.11 137.68 1719.52 137.74 C 1719.55 138.17 1719.61 139.04 1719.64 139.47 L 1718.52 139.37 C 1718.54 141.43 1718.54 143.49 1718.56 145.55 C 1718.73 145.53 1719.07 145.51 1719.24 145.49 C 1719.51 147.22 1719.39 149.36 1721.36 150.13 C 1721.35 150.48 1721.31 151.18 1721.29 151.53 L 1722.32 151.46 C 1722.45 152.05 1722.69 153.23 1722.82 153.82 C 1723.89 155.09 1724.81 156.49 1725.73 157.90 C 1725.69 158.26 1725.59 158.98 1725.54 159.34 C 1725.94 159.39 1726.75 159.48 1727.16 159.53 C 1727.68 161.18 1728.30 162.81 1728.86 164.47 C 1729.27 164.48 1730.09 164.52 1730.50 164.54 C 1730.46 165.03 1730.38 166.00 1730.34 166.49 L 1731.64 166.65 C 1731.54 167.10 1731.35 168.00 1731.25 168.45 L 1732.27 168.47 C 1733.24 170.44 1734.19 172.43 1734.92 174.51 C 1735.22 174.51 1735.80 174.51 1736.09 174.51 C 1736.65 176.17 1737.30 177.81 1737.89 179.47 C 1738.16 179.49 1738.71 179.53 1738.98 179.56 C 1740.06 182.27 1741.55 184.79 1742.93 187.36 C 1743.12 187.40 1743.52 187.48 1743.71 187.52 C 1743.72 187.83 1743.74 188.45 1743.74 188.76 C 1745.45 190.22 1745.78 192.64 1747.35 194.25 C 1747.35 194.55 1747.34 195.17 1747.34 195.47 L 1748.71 195.57 C 1748.61 196.02 1748.42 196.93 1748.32 197.38 L 1749.61 197.54 C 1749.61 198.02 1749.59 198.99 1749.59 199.47 C 1749.94 199.48 1750.64 199.51 1750.99 199.52 C 1751.63 201.64 1752.61 203.67 1754.20 205.27 C 1754.40 206.27 1754.61 207.28 1754.84 208.29 C 1755.30 208.39 1756.22 208.58 1756.68 208.68 L 1756.26 210.35 L 1757.76 210.62 C 1757.64 211.08 1757.39 211.99 1757.27 212.44 L 1758.62 212.34 L 1758.32 213.66 L 1759.69 213.57 C 1759.60 214.04 1759.41 215.00 1759.32 215.47 L 1760.73 215.56 C 1760.60 216.04 1760.35 216.99 1760.22 217.47 L 1761.60 217.31 L 1761.35 218.59 L 1762.52 218.40 C 1762.52 219.21 1762.50 220.82 1762.50 221.63 C 1759.45 221.66 1756.42 221.66 1753.40 221.64 L 1753.82 222.47 L 1752.58 222.52 L 1752.34 223.69 L 1751.59 223.41 C 1751.74 230.11 1751.70 236.81 1751.63 243.51 C 1751.93 243.47 1752.55 243.38 1752.86 243.34 L 1752.28 244.73 L 1753.66 244.12 C 1753.64 244.35 1753.60 244.81 1753.58 245.04 C 1754.47 245.41 1756.24 246.14 1757.13 246.51 C 1757.49 246.41 1758.20 246.21 1758.56 246.11 L 1758.51 247.27 C 1760.50 247.38 1762.52 247.52 1764.56 247.63 L 1764.45 248.44 C 1765.84 248.44 1767.25 248.44 1768.69 248.45 L 1768.40 249.32 C 1772.45 250.31 1776.56 251.00 1780.68 251.70 L 1780.42 252.32 C 1783.39 253.18 1786.46 253.70 1789.58 253.67 L 1789.36 254.60 C 1790.49 254.56 1791.64 254.53 1792.81 254.49 L 1792.63 255.62 L 1793.23 255.74 C 1793.28 255.16 1793.40 253.98 1793.45 253.40 L 1794.64 253.51 C 1794.60 253.08 1794.51 252.24 1794.46 251.81 C 1794.93 249.69 1795.26 247.53 1795.32 245.36 L 1794.36 245.93 C 1794.43 245.05 1794.57 243.30 1794.63 242.42 L 1793.40 242.43 C 1793.42 241.98 1793.47 241.06 1793.50 240.60 C 1791.24 240.50 1788.97 240.46 1786.74 240.55 C 1785.24 240.40 1783.77 240.19 1782.34 239.92 L 1782.52 237.66 C 1783.77 236.82 1785.09 235.99 1786.40 235.18 L 1786.61 234.88 C 1787.46 234.16 1788.30 233.41 1789.14 232.62 C 1789.48 232.64 1790.17 232.67 1790.51 232.69 L 1790.33 231.36 L 1791.68 231.67 L 1791.56 230.28 C 1792.03 230.40 1792.96 230.64 1793.42 230.76 L 1793.53 229.39 C 1794.00 229.41 1794.93 229.45 1795.40 229.46 C 1795.46 228.98 1795.57 228.00 1795.62 227.52 C 1796.09 227.55 1797.01 227.61 1797.47 227.65 L 1797.51 226.42 C 1797.83 226.37 1798.47 226.28 1798.79 226.24 C 1800.23 225.04 1801.78 223.95 1803.11 222.60 C 1803.45 222.61 1804.11 222.62 1804.45 222.63 L 1804.37 221.83 C 1804.74 221.47 1805.48 220.76 1805.86 220.41 L 1806.51 220.60 C 1806.64 214.19 1806.56 207.79 1806.56 201.38 L 1807.72 201.59 L 1807.26 200.24 C 1811.99 200.37 1816.74 200.25 1821.49 200.42 C 1821.60 202.98 1821.68 205.54 1821.78 208.11 C 1822.21 208.22 1823.06 208.44 1823.49 208.56 L 1823.50 207.23 C 1823.99 207.35 1824.95 207.59 1825.43 207.71 L 1825.47 206.34 C 1825.96 206.36 1826.95 206.41 1827.44 206.44 C 1827.45 206.05 1827.49 205.27 1827.50 204.88 C 1828.06 204.60 1829.18 204.04 1829.73 203.76 C 1831.43 202.43 1833.16 201.14 1834.98 199.95 C 1837.00 198.53 1838.99 197.04 1840.80 195.33 C 1842.83 195.23 1844.88 195.30 1846.94 195.56 C 1847.98 197.19 1849.48 198.45 1851.39 198.99 C 1851.45 199.36 1851.57 200.08 1851.62 200.45 C 1852.10 200.42 1853.05 200.38 1853.52 200.35 L 1853.60 201.73 C 1854.05 201.61 1854.97 201.38 1855.42 201.26 L 1855.32 202.62 L 1856.62 202.40 L 1856.48 203.70 C 1856.96 203.66 1857.92 203.58 1858.40 203.54 C 1858.45 204.01 1858.55 204.96 1858.60 205.43 C 1859.07 205.40 1860.01 205.34 1860.49 205.31 L 1860.53 206.61 C 1860.87 206.62 1861.53 206.66 1861.87 206.67 C 1863.17 207.82 1864.56 208.88 1865.98 209.92 C 1867.84 211.18 1869.67 212.51 1871.57 213.76 L 1871.54 214.18 C 1873.60 215.28 1875.60 216.55 1877.18 218.32 C 1877.51 218.32 1878.18 218.32 1878.52 218.31 L 1878.50 219.10 C 1879.36 219.70 1880.23 220.31 1881.11 220.93 C 1882.07 221.64 1883.02 222.33 1884.03 223.03 C 1885.80 224.31 1887.59 225.59 1889.44 226.80 L 1889.55 227.65 C 1889.88 227.65 1890.54 227.65 1890.87 227.65 C 1892.17 228.83 1893.56 229.93 1894.98 231.01 C 1896.48 231.92 1897.98 232.85 1899.52 233.76 L 1899.51 234.59 C 1899.83 234.63 1900.48 234.71 1900.80 234.75 C 1901.59 235.56 1902.49 236.27 1903.48 236.89 C 1903.60 237.63 1903.85 239.12 1903.98 239.86 C 1902.07 239.87 1900.23 239.89 1898.38 239.89 L 1898.73 241.01 C 1897.90 240.81 1896.22 240.40 1895.38 240.19 L 1895.51 241.65 C 1894.99 241.59 1893.97 241.45 1893.46 241.38 C 1893.49 241.93 1893.56 243.01 1893.60 243.55 L 1892.25 243.47 C 1892.38 243.99 1892.64 245.02 1892.77 245.54 L 1891.75 245.56 C 1891.93 250.92 1891.57 256.30 1892.00 261.66 C 1892.30 262.90 1892.60 264.16 1892.90 265.43 C 1893.14 265.45 1893.63 265.50 1893.88 265.52 C 1893.73 265.99 1893.45 266.93 1893.30 267.40 C 1903.41 267.70 1913.52 267.48 1923.64 267.51 L 1923.51 268.69 C 1923.91 268.60 1924.72 268.43 1925.12 268.35 C 1925.90 269.98 1926.78 271.61 1927.70 273.19 C 1927.96 273.55 1928.48 274.27 1928.75 274.63 L 1929.43 274.47 C 1929.50 275.22 1929.63 276.72 1929.70 277.47 C 1930.05 277.48 1930.76 277.50 1931.11 277.50 C 1931.58 278.85 1932.13 280.19 1932.67 281.53 L 1933.63 281.44 C 1933.67 282.49 1933.76 284.58 1933.80 285.63 C 1931.10 285.64 1928.44 285.66 1925.78 285.72 C 1923.99 289.68 1924.87 294.02 1924.78 298.20 C 1923.75 299.68 1927.28 302.77 1924.57 302.60 L 1924.80 304.09 C 1925.02 304.96 1925.46 306.71 1925.68 307.59 L 1924.57 307.35 C 1924.59 308.14 1924.61 309.73 1924.62 310.53 L 1926.77 311.00 L 1924.60 311.47 C 1924.59 313.17 1924.60 314.87 1924.61 316.57 L 1925.81 316.44 L 1925.49 317.96 C 1925.98 317.77 1926.95 317.40 1927.44 317.22 L 1927.35 318.42 C 1932.77 318.32 1938.21 318.32 1943.65 318.42 L 1943.55 317.18 C 1944.05 317.38 1945.04 317.79 1945.54 317.99 L 1945.19 316.44 L 1946.40 316.57 C 1946.24 293.92 1946.35 271.27 1946.34 248.62 C 1945.61 248.60 1944.16 248.56 1943.43 248.53 C 1943.44 248.31 1943.47 247.88 1943.49 247.66 C 1940.72 247.73 1937.96 247.76 1935.22 247.75 C 1935.29 246.91 1935.45 245.22 1935.53 244.38 C 1936.01 244.43 1936.99 244.54 1937.47 244.60 L 1937.37 243.35 L 1938.63 243.75 L 1938.67 242.97 C 1940.73 241.92 1942.60 240.54 1944.44 239.13 L 1944.55 238.39 C 1944.88 238.38 1945.52 238.36 1945.84 238.35 C 1947.89 236.42 1950.17 234.75 1952.51 233.17 L 1952.48 232.28 L 1953.89 232.47 C 1953.73 232.00 1953.41 231.06 1953.25 230.59 L 1954.42 230.62 C 1954.32 225.21 1954.28 219.81 1954.44 214.40 L 1955.66 214.78 C 1955.63 214.46 1955.56 213.82 1955.53 213.50 C 1958.86 213.47 1962.21 213.50 1965.57 213.52 C 1965.50 213.85 1965.36 214.50 1965.29 214.82 L 1966.53 214.37 C 1966.55 216.71 1966.59 219.05 1966.63 221.39 C 1967.52 221.39 1968.43 221.39 1969.37 221.40 C 1971.31 219.84 1973.29 218.33 1975.10 216.61 C 1975.44 216.60 1976.11 216.58 1976.45 216.57 L 1976.49 215.31 C 1976.95 215.34 1977.88 215.41 1978.34 215.45 C 1978.40 214.96 1978.53 213.97 1978.59 213.47 C 1979.06 213.51 1979.99 213.59 1980.46 213.62 L 1980.52 212.35 C 1980.88 212.36 1981.59 212.39 1981.95 212.41 C 1983.52 208.72 1988.44 210.57 1991.53 210.58 C 1991.54 210.91 1991.55 211.58 1991.55 211.91 C 1993.32 212.77 1994.98 213.88 1996.52 215.14 C 1998.32 216.50 2000.16 217.81 2002.08 219.03 C 2003.47 220.04 2004.84 221.11 2006.18 222.24 C 2006.50 222.28 2007.16 222.34 2007.49 222.38 L 2007.53 223.62 C 2007.87 223.64 2008.54 223.67 2008.88 223.69 C 2009.46 224.69 2010.31 225.40 2011.43 225.81 L 2011.56 226.62 C 2011.91 226.62 2012.59 226.62 2012.94 226.63 C 2014.31 227.85 2015.72 229.06 2017.07 230.36 C 2017.42 230.36 2018.12 230.35 2018.47 230.35 L 2018.55 231.61 C 2018.88 231.62 2019.55 231.62 2019.88 231.62 C 2020.69 232.66 2021.75 233.44 2022.91 234.13 C 2023.67 234.76 2024.49 235.34 2025.37 235.87 L 2025.54 236.66 C 2026.00 236.61 2026.93 236.52 2027.40 236.47 C 2027.46 236.96 2027.59 237.95 2027.65 238.44 C 2028.11 238.42 2029.02 238.38 2029.47 238.36 L 2029.54 239.66 C 2030.00 239.62 2030.92 239.53 2031.38 239.49 C 2031.44 240.00 2031.57 241.02 2031.63 241.53 C 2032.08 241.46 2032.98 241.34 2033.43 241.28 C 2033.49 241.65 2033.61 242.39 2033.66 242.76 L 2035.40 242.18 L 2035.36 243.28 C 2036.41 243.76 2037.48 244.24 2038.59 244.73 C 2038.63 245.49 2038.72 246.99 2038.76 247.75 C 2035.64 247.76 2032.54 247.72 2029.45 247.68 C 2029.49 248.13 2029.58 249.02 2029.62 249.47 L 2028.23 249.42 C 2028.48 250.96 2028.78 252.49 2029.14 254.03 L 2027.87 253.27 C 2027.89 262.02 2027.86 270.77 2027.88 279.52 C 2028.27 279.45 2029.05 279.33 2029.44 279.26 L 2029.34 280.79 C 2040.46 280.77 2051.58 280.85 2062.72 280.75 C 2062.78 270.03 2063.04 259.28 2062.56 248.57 C 2060.91 248.56 2059.33 248.55 2057.74 248.55 C 2057.38 247.89 2056.67 246.58 2056.32 245.92 C 2057.69 243.67 2059.25 241.54 2060.83 239.41 C 2063.23 239.35 2065.66 239.34 2068.10 239.32 C 2068.48 238.74 2069.24 237.58 2069.62 237.00 C 2069.53 236.75 2069.35 236.25 2069.26 236.01 C 2069.79 235.24 2070.29 234.46 2070.86 233.69 C 2073.42 233.69 2075.99 233.69 2078.59 233.64 L 2078.45 234.37 C 2079.22 234.38 2080.77 234.39 2081.55 234.40 L 2081.56 233.93 C 2083.67 233.76 2084.90 232.14 2085.87 230.43 L 2086.65 230.38 C 2086.55 229.93 2086.35 229.01 2086.25 228.56 L 2087.63 228.63 L 2087.57 227.26 C 2088.03 227.38 2088.95 227.61 2089.41 227.73 L 2089.34 226.54 C 2090.72 226.08 2092.15 225.62 2093.60 225.25 L 2093.52 224.72 C 2095.14 225.33 2096.91 225.49 2098.67 225.60 L 2098.54 226.71 C 2099.01 226.59 2099.94 226.36 2100.41 226.25 L 2100.55 227.13 C 2102.71 228.25 2104.12 230.21 2104.93 232.47 L 2105.70 232.31 L 2105.38 233.55 C 2110.26 234.07 2115.40 232.85 2120.08 234.77 C 2120.21 236.01 2120.37 237.26 2120.57 238.51 C 2122.84 238.65 2125.14 238.74 2127.47 238.76 C 2127.49 239.04 2127.54 239.60 2127.56 239.88 C 2128.02 239.69 2128.95 239.30 2129.42 239.11 L 2129.38 240.57 L 2130.77 240.57 C 2130.65 241.04 2130.40 241.99 2130.27 242.46 L 2131.16 242.32 C 2131.50 242.72 2132.17 243.52 2132.51 243.92 L 2132.25 244.76 L 2133.46 244.45 C 2133.43 245.80 2133.43 247.15 2133.46 248.51 C 2131.44 248.55 2129.40 248.59 2127.43 248.61 L 2127.65 249.69 L 2126.46 249.38 C 2126.39 259.78 2126.40 270.18 2126.46 280.58 L 2127.62 280.34 L 2127.46 281.44 C 2131.19 281.45 2134.94 281.42 2138.70 281.41 L 2138.25 282.61 L 2139.47 282.44 C 2139.52 293.17 2139.44 303.91 2139.48 314.64 L 2140.73 314.17 L 2140.44 315.40 C 2141.34 315.45 2142.26 315.50 2143.21 315.56 C 2146.03 316.27 2149.01 316.52 2151.83 315.57 L 2152.64 315.63 L 2152.53 314.31 C 2153.00 314.38 2153.94 314.53 2154.41 314.60 C 2154.40 298.56 2154.54 282.51 2154.33 266.46 C 2153.86 266.56 2152.92 266.76 2152.45 266.85 C 2152.46 266.55 2152.48 265.95 2152.49 265.65 C 2150.66 265.70 2148.86 265.76 2147.08 265.81 C 2147.14 264.62 2147.23 263.43 2147.34 262.25 C 2147.87 262.32 2148.91 262.47 2149.44 262.54 L 2149.58 261.22 C 2150.04 261.36 2150.95 261.64 2151.41 261.78 L 2151.56 260.33 C 2152.02 260.40 2152.96 260.54 2153.43 260.61 C 2153.49 260.24 2153.61 259.50 2153.67 259.13 L 2155.38 259.89 C 2155.43 259.51 2155.52 258.75 2155.57 258.38 L 2157.47 258.73 L 2157.58 257.23 C 2158.04 257.36 2158.95 257.61 2159.40 257.74 L 2159.49 256.88 C 2161.77 256.44 2163.63 254.91 2163.89 252.49 L 2164.46 252.64 C 2164.34 247.17 2164.29 241.69 2164.48 236.21 C 2164.97 236.32 2165.95 236.52 2166.44 236.63 L 2166.35 235.56 C 2168.76 235.59 2171.18 235.59 2173.63 235.57 L 2173.33 236.46 L 2174.68 236.40 L 2174.43 237.78 L 2175.39 237.34 C 2175.35 239.46 2175.36 241.58 2175.43 243.71 L 2174.59 243.31 L 2174.58 245.69 L 2175.65 245.44 C 2175.53 246.03 2175.29 247.21 2175.17 247.80 C 2177.35 247.74 2179.53 247.39 2181.56 246.51 L 2181.59 245.23 C 2182.06 245.36 2183.00 245.63 2183.47 245.77 L 2183.43 244.85 C 2185.46 244.00 2187.47 243.06 2189.52 242.19 L 2189.40 241.60 C 2190.05 241.54 2191.36 241.41 2192.02 241.34 C 2192.58 239.81 2194.07 239.52 2195.53 239.22 L 2195.62 238.90 C 2197.58 238.02 2199.52 237.06 2201.53 236.20 C 2201.56 235.98 2201.62 235.52 2201.65 235.29 L 2202.95 235.69 C 2203.58 235.30 2204.84 234.51 2205.47 234.12 L 2205.55 233.25 C 2206.02 233.38 2206.96 233.64 2207.43 233.77 C 2207.49 233.39 2207.60 232.63 2207.65 232.25 L 2209.38 232.87 L 2209.61 231.25 C 2210.06 231.38 2210.97 231.63 2211.42 231.76 C 2211.57 231.15 2211.86 229.91 2212.01 229.30 C 2212.16 229.89 2212.45 231.09 2212.60 231.68 C 2213.05 231.56 2213.97 231.30 2214.43 231.18 L 2214.61 232.66 C 2215.08 232.56 2216.02 232.37 2216.49 232.28 L 2216.55 233.67 C 2217.05 233.56 2218.04 233.32 2218.54 233.21 L 2218.59 234.51 C 2219.08 234.46 2220.05 234.36 2220.54 234.31 L 2220.64 235.78 L 2222.40 235.20 C 2222.41 235.43 2222.45 235.89 2222.46 236.12 C 2223.62 236.52 2224.80 236.95 2226.00 237.40 L 2226.69 237.39 L 2226.49 238.24 C 2228.56 238.94 2230.60 239.79 2232.62 240.70 L 2232.50 241.68 C 2232.89 241.63 2233.66 241.52 2234.05 241.46 C 2235.53 242.24 2237.06 243.01 2238.61 243.75 L 2238.48 244.49 C 2239.25 244.52 2240.79 244.57 2241.56 244.60 L 2241.44 245.74 C 2241.97 245.66 2243.01 245.49 2243.53 245.41 L 2243.40 246.79 L 2244.71 246.37 L 2244.51 247.66 C 2244.91 247.59 2245.71 247.46 2246.11 247.40 C 2248.41 248.84 2250.70 250.44 2253.46 250.93 L 2253.43 251.22 C 2254.27 251.63 2255.12 252.05 2255.98 252.48 L 2256.68 252.31 L 2256.48 253.19 C 2258.20 253.43 2260.04 253.80 2261.14 255.35 C 2261.35 255.39 2261.76 255.46 2261.97 255.50 C 2263.77 256.27 2265.85 256.76 2267.14 258.42 C 2267.49 258.39 2268.20 258.32 2268.55 258.29 L 2268.41 259.09 C 2269.65 259.53 2270.90 260.01 2272.17 260.54 C 2272.47 260.49 2273.07 260.38 2273.37 260.33 L 2273.33 261.71 L 2274.49 261.13 C 2274.55 261.45 2274.66 262.11 2274.71 262.44 C 2275.37 262.43 2276.68 262.43 2277.34 262.43 C 2277.40 263.23 2277.50 264.83 2277.56 265.63 L 2276.41 265.43 L 2276.68 266.44 C 2274.52 266.41 2272.42 266.44 2270.32 266.52 C 2270.46 267.01 2270.74 268.00 2270.88 268.50 C 2270.57 268.50 2269.97 268.51 2269.67 268.51 C 2269.71 276.52 2269.78 284.54 2269.63 292.55 C 2269.77 292.53 2270.05 292.50 2270.20 292.48 C 2270.34 294.88 2272.17 296.59 2274.52 296.86 L 2274.40 297.47 C 2275.19 297.46 2276.76 297.42 2277.55 297.41 C 2277.57 297.73 2277.61 298.37 2277.62 298.69 L 2279.50 298.19 L 2279.46 299.60 C 2279.99 299.55 2281.04 299.45 2281.57 299.40 C 2281.77 302.04 2281.84 304.69 2281.82 307.34 L 2282.74 307.38 C 2282.66 307.84 2282.51 308.75 2282.43 309.20 C 2282.77 309.76 2283.46 310.88 2283.80 311.44 C 2290.08 311.38 2296.37 311.32 2302.67 311.46 L 2302.51 310.35 C 2303.01 310.45 2304.02 310.65 2304.52 310.75 C 2304.62 307.62 2304.64 304.50 2304.57 301.38 L 2305.69 301.59 C 2305.65 301.07 2305.56 300.04 2305.52 299.52 C 2306.02 299.57 2307.04 299.68 2307.55 299.73 L 2307.53 298.84 C 2308.62 298.47 2309.74 298.09 2310.88 297.70 C 2311.95 297.28 2313.05 296.86 2314.17 296.43 L 2315.29 296.75 C 2315.38 296.33 2315.57 295.50 2315.67 295.08 L 2316.75 295.48 C 2317.97 294.87 2319.27 294.50 2320.65 294.20 L 2320.53 293.26 C 2321.01 293.39 2321.97 293.65 2322.45 293.77 L 2322.40 292.31 L 2323.85 292.47 C 2323.69 291.99 2323.39 291.03 2323.23 290.55 L 2324.69 290.71 L 2324.20 289.43 C 2324.47 289.42 2325.02 289.40 2325.30 289.39 C 2325.19 284.12 2325.18 278.85 2325.30 273.59 C 2325.02 273.59 2324.44 273.58 2324.16 273.58 L 2324.69 272.28 L 2323.27 272.68 L 2323.48 271.22 C 2322.97 271.39 2321.96 271.73 2321.45 271.90 L 2321.43 270.76 C 2319.67 270.80 2317.93 270.82 2316.22 270.84 C 2316.32 269.97 2316.51 268.25 2316.60 267.39 L 2318.47 267.66 L 2318.34 266.34 C 2318.69 266.43 2319.37 266.61 2319.71 266.70 L 2319.55 265.35 C 2320.01 265.44 2320.95 265.63 2321.41 265.72 L 2321.52 264.43 C 2321.85 264.39 2322.50 264.31 2322.83 264.27 C 2324.22 263.04 2325.69 261.88 2327.13 260.67 C 2327.45 260.64 2328.11 260.60 2328.44 260.58 L 2328.54 259.34 C 2329.02 259.37 2330.00 259.45 2330.48 259.48 C 2330.50 259.00 2330.55 258.02 2330.57 257.54 C 2331.04 257.56 2331.98 257.60 2332.45 257.62 L 2332.51 256.35 C 2332.85 256.33 2333.53 256.31 2333.86 256.30 C 2335.22 255.04 2336.66 253.87 2338.09 252.67 C 2338.44 252.65 2339.14 252.60 2339.49 252.58 L 2339.51 251.27 C 2339.98 251.31 2340.91 251.41 2341.37 251.46 C 2341.44 250.97 2341.58 250.00 2341.65 249.51 C 2342.12 249.56 2343.05 249.65 2343.52 249.70 L 2343.51 248.84 C 2345.39 247.71 2347.18 246.41 2348.95 245.06 C 2350.79 243.78 2352.65 242.48 2354.53 241.20 L 2354.38 240.66 C 2355.41 240.19 2356.48 239.73 2357.57 239.27 L 2357.44 238.30 C 2359.78 238.24 2362.15 238.29 2364.53 238.45 L 2364.34 239.80 L 2365.64 239.32 L 2365.46 240.67 C 2365.94 240.63 2366.91 240.57 2367.39 240.53 C 2367.44 241.02 2367.53 242.01 2367.58 242.50 C 2368.06 242.43 2369.03 242.31 2369.51 242.25 L 2369.45 243.10 C 2371.01 243.67 2372.03 245.03 2373.13 246.26 C 2374.12 246.32 2375.14 246.38 2376.21 246.44 C 2376.30 244.82 2376.41 243.20 2376.58 241.59 C 2379.93 241.48 2383.30 241.44 2386.68 241.46 L 2386.22 242.74 L 2387.49 242.35 C 2387.51 247.04 2387.38 251.73 2387.61 256.42 C 2387.94 256.47 2388.60 256.59 2388.93 256.64 C 2390.22 257.96 2391.67 259.11 2393.13 260.28 C 2393.47 260.30 2394.15 260.35 2394.49 260.38 L 2394.51 261.66 C 2394.99 261.63 2395.95 261.57 2396.44 261.54 C 2396.47 262.02 2396.54 262.99 2396.57 263.47 C 2397.05 263.42 2398.01 263.32 2398.49 263.26 L 2398.51 264.14 C 2400.06 264.98 2401.59 265.91 2403.14 266.83 C 2404.91 267.74 2404.57 269.84 2404.91 271.51 C 2402.36 271.51 2399.88 271.49 2397.38 271.49 L 2397.76 272.70 L 2396.47 272.42 C 2396.45 274.74 2396.53 277.07 2396.66 279.40 C 2402.91 279.77 2409.19 279.61 2415.47 279.58 C 2416.59 278.50 2417.73 277.42 2418.90 276.35 C 2419.22 276.42 2419.85 276.56 2420.17 276.63 C 2420.67 275.58 2421.20 274.53 2421.75 273.49 L 2422.46 273.60 C 2422.44 267.63 2422.19 261.65 2422.66 255.69 C 2425.97 255.61 2429.31 255.63 2432.65 255.56 L 2432.51 256.70 C 2433.00 256.63 2433.97 256.47 2434.45 256.39 C 2434.52 258.85 2434.51 261.31 2434.52 263.78 C 2435.37 263.67 2437.08 263.45 2437.94 263.34 C 2439.22 262.15 2440.61 261.07 2442.05 260.03 C 2443.18 259.44 2444.36 258.81 2445.16 257.71 C 2445.48 257.68 2446.12 257.62 2446.44 257.59 L 2446.49 256.81 C 2448.18 255.62 2449.85 254.38 2451.60 253.23 L 2451.64 252.39 L 2453.47 252.70 L 2453.41 251.46 C 2454.77 251.47 2456.14 251.47 2457.54 251.48 L 2457.48 252.71 C 2457.94 252.68 2458.87 252.62 2459.33 252.59 C 2459.39 253.09 2459.50 254.07 2459.56 254.57 C 2460.03 254.51 2460.97 254.41 2461.44 254.35 L 2461.61 255.10 C 2462.45 255.81 2463.30 256.54 2464.16 257.30 C 2464.49 257.32 2465.15 257.34 2465.47 257.35 L 2465.61 258.10 C 2466.53 258.71 2467.37 259.45 2468.12 260.32 C 2468.46 260.32 2469.13 260.33 2469.47 260.34 L 2469.47 261.23 C 2470.95 262.13 2472.47 263.07 2473.96 264.02 C 2477.59 266.75 2481.14 269.61 2484.97 272.09 C 2486.95 273.50 2488.92 274.96 2490.77 276.58 C 2492.70 276.59 2494.64 276.56 2496.63 276.55 L 2496.54 275.18 C 2497.03 275.33 2498.00 275.62 2498.49 275.77 L 2498.31 274.52 C 2499.64 274.45 2500.99 274.38 2502.38 274.31 C 2502.54 273.71 2502.87 272.51 2503.03 271.90 C 2503.26 272.60 2503.74 273.99 2503.97 274.68 C 2504.13 274.06 2504.45 272.82 2504.61 272.19 C 2505.07 272.33 2505.99 272.60 2506.45 272.73 L 2506.34 271.58 C 2507.48 271.47 2508.66 271.35 2509.87 271.22 C 2510.63 270.42 2511.43 269.64 2512.27 268.87 C 2512.47 265.07 2512.34 261.25 2512.53 257.45 C 2512.92 257.44 2513.69 257.43 2514.07 257.42 C 2515.02 256.15 2516.01 254.90 2517.00 253.63 C 2517.36 253.63 2518.08 253.62 2518.45 253.62 L 2518.49 252.34 C 2518.98 252.35 2519.94 252.38 2520.42 252.39 C 2520.39 251.91 2520.31 250.95 2520.27 250.47 L 2521.39 250.47 C 2521.37 246.79 2521.30 243.11 2521.44 239.43 C 2522.44 239.47 2524.43 239.54 2525.43 239.58 C 2525.49 243.25 2525.43 246.92 2525.43 250.60 L 2526.61 250.49 C 2526.59 250.99 2526.55 251.97 2526.53 252.46 C 2527.03 252.44 2528.04 252.39 2528.54 252.36 L 2528.37 253.66 L 2529.71 253.31 L 2529.36 254.14 C 2529.72 254.52 2530.42 255.27 2530.78 255.64 L 2531.60 255.40 L 2531.34 256.75 L 2532.66 256.36 L 2532.51 257.75 C 2532.98 257.66 2533.91 257.47 2534.38 257.37 C 2534.51 261.07 2534.49 264.78 2534.59 268.48 C 2534.92 268.44 2535.58 268.35 2535.91 268.30 L 2535.27 269.61 L 2536.62 269.46 L 2536.56 270.89 C 2537.04 270.71 2538.02 270.36 2538.51 270.18 L 2538.33 271.43 C 2539.14 271.44 2540.75 271.45 2541.56 271.45 L 2541.58 272.74 C 2542.04 272.62 2542.96 272.38 2543.42 272.26 L 2543.52 273.63 C 2543.91 273.59 2544.68 273.49 2545.06 273.45 C 2546.54 273.94 2548.07 274.39 2549.64 274.79 L 2549.53 275.77 C 2550.00 275.65 2550.94 275.41 2551.42 275.29 L 2551.54 276.76 C 2552.04 276.61 2553.02 276.31 2553.51 276.16 L 2553.55 277.29 C 2554.57 277.36 2556.61 277.49 2557.63 277.56 L 2557.52 278.75 C 2557.98 278.63 2558.90 278.40 2559.35 278.28 L 2559.56 279.73 C 2560.07 279.59 2561.08 279.32 2561.59 279.18 L 2561.47 280.36 C 2562.26 280.39 2563.83 280.45 2564.62 280.48 L 2564.25 281.77 L 2565.51 281.34 C 2565.77 291.44 2565.65 301.55 2565.56 311.65 L 2566.57 311.50 C 2566.52 312.02 2566.42 313.07 2566.37 313.59 C 2566.90 313.56 2567.98 313.50 2568.52 313.46 L 2568.34 314.51 C 2569.98 314.44 2571.66 314.38 2573.37 314.32 C 2573.40 313.57 2573.46 312.06 2573.49 311.30 L 2574.33 311.59 C 2574.22 308.59 2574.23 305.60 2574.33 302.61 C 2575.53 302.29 2576.75 301.96 2578.00 301.62 C 2578.39 301.61 2579.17 301.57 2579.56 301.55 C 2579.53 301.02 2579.45 299.96 2579.42 299.44 C 2579.69 299.48 2580.23 299.56 2580.51 299.61 C 2580.51 295.19 2580.47 290.78 2580.49 286.37 C 2586.92 286.06 2593.37 286.22 2599.83 286.22 C 2599.78 288.27 2599.77 290.32 2599.75 292.38 L 2600.35 292.33 C 2600.61 293.76 2600.54 295.55 2602.48 295.87 L 2602.42 296.48 C 2608.80 296.52 2615.20 296.55 2621.60 296.46 L 2621.42 295.20 C 2621.93 295.32 2622.95 295.56 2623.47 295.69 C 2623.40 295.33 2623.26 294.61 2623.19 294.25 L 2624.32 294.40 C 2624.34 292.74 2624.44 291.09 2624.53 289.44 L 2623.35 289.58 C 2623.21 287.19 2623.19 284.79 2623.31 282.40 L 2624.70 282.63 L 2624.33 281.31 L 2625.75 281.48 C 2625.60 280.98 2625.31 279.97 2625.17 279.46 L 2626.31 279.52 C 2626.28 277.43 2626.30 275.35 2626.38 273.27 C 2628.09 273.30 2629.84 273.34 2631.62 273.39 C 2631.71 273.89 2631.88 274.89 2631.97 275.40 C 2632.09 274.83 2632.34 273.68 2632.46 273.11 L 2633.66 273.78 L 2633.41 272.37 C 2635.92 272.43 2639.88 271.19 2641.01 274.38 C 2641.39 274.40 2642.14 274.45 2642.52 274.47 C 2642.55 274.95 2642.62 275.92 2642.65 276.40 C 2643.11 276.38 2644.02 276.35 2644.48 276.33 L 2644.60 277.09 C 2646.76 278.73 2648.74 280.61 2650.67 282.55 C 2651.93 282.54 2653.24 282.52 2654.58 282.52 L 2654.35 281.32 L 2655.67 281.66 L 2655.32 280.74 C 2655.69 280.51 2656.44 280.06 2656.81 279.84 C 2659.35 277.60 2661.69 275.13 2664.44 273.12 L 2664.47 272.33 C 2666.63 272.71 2670.23 271.38 2671.03 274.32 C 2671.40 274.32 2672.15 274.33 2672.53 274.33 L 2672.41 275.60 L 2673.66 275.33 L 2673.49 276.59 C 2673.86 276.61 2674.60 276.65 2674.97 276.67 C 2675.96 277.89 2677.02 279.08 2678.06 280.31 C 2678.44 280.34 2679.19 280.39 2679.57 280.42 L 2679.35 281.68 L 2680.68 281.38 L 2680.51 282.77 C 2680.95 282.66 2681.83 282.46 2682.27 282.35 C 2682.49 282.85 2682.94 283.86 2683.17 284.36 C 2683.26 283.87 2683.44 282.90 2683.53 282.42 C 2684.03 282.47 2685.02 282.56 2685.51 282.60 C 2685.53 282.09 2685.56 281.07 2685.58 280.56 C 2686.06 280.58 2687.02 280.61 2687.50 280.63 L 2687.42 279.38 C 2687.90 279.37 2688.87 279.35 2689.35 279.34 C 2689.39 279.00 2689.48 278.30 2689.52 277.96 C 2691.50 276.36 2693.42 274.66 2695.50 273.14 L 2695.51 272.41 C 2697.15 272.41 2698.82 272.41 2700.53 272.43 L 2700.34 273.74 L 2701.60 273.33 L 2701.58 274.04 C 2702.41 274.76 2703.24 275.52 2704.07 276.32 C 2704.28 276.41 2704.71 276.61 2704.92 276.71 C 2705.70 277.50 2706.54 278.25 2707.44 278.97 L 2707.47 279.69 C 2707.93 279.66 2708.84 279.59 2709.30 279.55 C 2709.38 279.91 2709.55 280.63 2709.63 280.99 C 2710.45 281.69 2711.28 282.42 2712.12 283.16 C 2712.72 283.25 2713.92 283.44 2714.52 283.53 C 2714.49 283.31 2714.43 282.87 2714.40 282.65 C 2715.44 282.20 2716.51 281.74 2717.61 281.29 L 2717.38 280.76 C 2717.75 280.39 2718.49 279.66 2718.85 279.29 L 2719.72 279.72 L 2719.28 278.32 L 2720.65 278.67 L 2720.25 277.30 L 2721.57 277.66 L 2721.55 276.90 C 2722.97 275.80 2724.32 274.61 2725.82 273.56 C 2727.65 272.85 2729.68 273.38 2731.66 273.32 L 2731.40 274.51 C 2733.82 274.37 2736.25 274.26 2738.73 274.22 C 2738.67 276.66 2738.63 279.10 2738.56 281.55 C 2738.76 281.53 2739.15 281.48 2739.35 281.46 C 2739.78 282.52 2740.23 283.59 2740.72 284.66 L 2741.22 284.37 C 2741.57 284.74 2742.29 285.48 2742.65 285.85 L 2742.31 286.67 L 2743.66 286.33 L 2743.30 287.61 L 2744.58 287.47 C 2744.61 288.51 2744.66 290.60 2744.68 291.65 C 2744.10 291.65 2742.95 291.64 2742.37 291.64 C 2742.48 292.11 2742.69 293.04 2742.80 293.50 C 2742.47 293.48 2741.82 293.43 2741.49 293.41 C 2741.39 302.83 2741.46 312.26 2741.44 321.68 L 2742.57 321.46 C 2742.53 322.00 2742.46 323.08 2742.43 323.62 C 2742.94 323.55 2743.98 323.41 2744.49 323.33 L 2744.44 324.45 C 2750.16 324.43 2755.89 324.44 2761.63 324.44 L 2761.56 323.24 C 2762.04 323.41 2763.00 323.75 2763.48 323.92 L 2763.63 322.41 C 2764.06 322.47 2764.93 322.58 2765.36 322.64 C 2765.28 314.55 2765.27 306.46 2765.36 298.38 C 2764.92 298.44 2764.03 298.56 2763.58 298.62 L 2763.69 297.49 C 2761.60 297.52 2759.51 297.53 2757.48 297.53 C 2757.51 296.88 2757.56 295.58 2757.59 294.93 C 2758.45 294.22 2759.30 293.48 2760.15 292.70 C 2760.49 292.70 2761.16 292.69 2761.49 292.69 L 2761.43 291.71 C 2762.47 291.23 2763.53 290.76 2764.63 290.28 L 2764.37 289.22 L 2765.77 289.70 L 2765.50 288.27 C 2765.97 288.38 2766.91 288.62 2767.39 288.74 L 2767.38 287.38 L 2768.67 287.60 L 2768.50 286.35 C 2768.84 286.35 2769.53 286.35 2769.87 286.35 C 2770.71 285.53 2771.60 284.73 2772.53 283.95 C 2772.47 283.60 2772.36 282.90 2772.30 282.55 L 2773.39 282.50 C 2773.30 278.54 2773.23 274.57 2773.54 270.62 C 2776.43 270.55 2779.34 270.52 2782.28 270.54 C 2782.77 271.62 2783.28 272.70 2783.82 273.79 C 2785.63 273.64 2787.94 274.01 2789.11 272.16 C 2790.91 270.82 2792.75 269.50 2794.62 268.20 L 2794.57 267.32 C 2795.08 267.44 2796.09 267.70 2796.59 267.83 L 2796.58 266.25 C 2801.17 268.70 2804.89 272.47 2809.54 274.86 L 2809.50 275.71 C 2809.97 275.68 2810.91 275.60 2811.39 275.57 C 2811.43 275.90 2811.52 276.55 2811.57 276.88 C 2813.53 278.00 2815.40 279.32 2817.18 280.76 C 2817.57 280.99 2818.34 281.43 2818.73 281.65 L 2818.59 282.00 C 2819.88 282.54 2821.10 283.35 2822.17 284.33 C 2822.49 284.38 2823.14 284.49 2823.46 284.55 C 2823.45 284.85 2823.43 285.46 2823.42 285.77 L 2824.65 285.39 L 2824.61 286.19 C 2825.47 286.66 2826.30 287.22 2827.09 287.89 C 2828.22 288.49 2829.37 289.19 2830.11 290.34 C 2830.45 290.35 2831.12 290.35 2831.46 290.36 L 2831.62 291.09 C 2832.57 291.64 2833.40 292.36 2834.11 293.27 C 2834.46 293.28 2835.18 293.31 2835.53 293.33 L 2835.61 294.61 C 2836.06 294.55 2836.97 294.44 2837.42 294.38 C 2837.37 295.45 2837.36 296.53 2837.38 297.60 C 2837.04 297.56 2836.38 297.49 2836.05 297.45 C 2833.83 297.91 2831.59 298.31 2829.39 298.53 C 2829.12 309.50 2828.94 320.52 2829.50 331.48 C 2833.50 331.78 2837.54 331.76 2841.58 331.57 C 2841.61 326.59 2841.63 321.60 2841.55 316.62 C 2840.22 316.12 2839.04 315.62 2837.78 315.15 C 2837.66 314.26 2837.57 313.38 2837.52 312.51 L 2838.61 312.51 L 2838.48 311.23 C 2838.83 311.26 2839.53 311.32 2839.88 311.35 C 2841.35 309.52 2843.48 308.42 2845.49 307.24 L 2845.52 306.32 C 2846.00 306.36 2846.94 306.43 2847.42 306.47 C 2847.46 305.99 2847.54 305.04 2847.58 304.56 C 2848.05 304.59 2848.99 304.64 2849.46 304.67 L 2849.49 303.87 C 2851.90 302.67 2854.09 301.05 2856.08 299.21 C 2856.49 298.97 2857.30 298.50 2857.70 298.26 L 2857.55 297.21 C 2858.03 297.37 2858.99 297.69 2859.46 297.85 C 2859.50 297.44 2859.57 296.63 2859.60 296.22 C 2861.25 296.97 2862.91 297.77 2864.54 298.66 L 2864.45 299.23 C 2866.29 300.50 2868.11 301.81 2870.02 303.03 C 2871.40 304.11 2872.77 305.22 2874.12 306.39 C 2874.47 306.38 2875.16 306.35 2875.50 306.34 L 2875.32 307.66 L 2876.64 307.30 L 2876.52 308.69 L 2878.34 308.39 L 2879.12 311.21 L 2880.00 308.17 L 2880.00 350.00 L 0.00 350.00 L 0.00 261.70 C 3.73 259.63 7.63 261.65 11.54 261.76 C 11.84 267.03 11.71 272.32 11.62 277.59 L 12.80 277.58 C 12.63 278.04 12.31 278.96 12.14 279.42 L 13.58 279.48 C 13.59 279.96 13.60 280.92 13.61 281.40 C 14.09 281.38 15.04 281.35 15.52 281.34 L 15.56 282.71 C 16.03 282.63 16.98 282.46 17.45 282.38 L 17.56 283.85 C 18.05 283.68 19.02 283.33 19.51 283.15 L 19.38 284.47 C 26.46 284.54 33.54 284.49 40.62 284.50 L 40.26 283.31 L 41.47 283.56 C 41.54 281.20 41.60 278.83 41.65 276.47 C 50.54 275.90 59.47 276.29 68.37 276.28 C 68.40 276.05 68.46 275.59 68.49 275.36 C 69.01 275.41 70.04 275.51 70.56 275.56 L 70.41 273.47 C 70.70 273.50 71.27 273.54 71.56 273.57 C 71.82 269.56 71.00 265.37 72.48 261.53 C 74.09 261.53 75.70 261.51 77.32 261.51 C 78.05 260.83 78.79 260.15 79.53 259.48 C 79.55 254.81 79.58 250.14 79.50 245.47 C 75.29 245.29 71.08 245.52 66.88 245.30 C 66.78 244.83 66.57 243.88 66.47 243.41 L 67.75 243.59 C 67.67 243.15 67.52 242.27 67.44 241.83 C 68.06 241.67 69.31 241.36 69.93 241.20 C 71.32 240.05 72.74 238.92 74.10 237.73 C 74.44 237.69 75.11 237.62 75.44 237.58 L 75.55 236.35 C 75.89 236.35 76.56 236.36 76.89 236.36 C 78.87 234.46 81.14 232.90 83.20 231.08 C 84.20 230.44 85.22 229.84 86.25 229.25 C 87.71 228.22 89.16 227.18 90.62 226.16 C 91.25 220.43 90.00 214.55 91.36 208.92 C 91.39 208.56 91.45 207.82 91.48 207.46 C 92.01 207.51 93.05 207.62 93.58 207.67 L 93.51 206.70 C 96.83 206.79 100.15 206.80 103.46 206.71 C 103.49 206.98 103.55 207.53 103.58 207.80 C 104.06 207.63 105.02 207.27 105.50 207.10 L 105.24 208.60 L 106.40 208.40 C 106.38 209.89 106.36 211.37 106.35 212.86 C 107.40 212.80 109.51 212.67 110.56 212.61 L 110.33 211.71 C 110.70 211.47 111.45 211.00 111.82 210.76 C 113.48 209.44 115.18 208.19 116.96 207.04 C 118.79 205.72 120.63 204.40 122.54 203.19 L 122.38 202.35 L 123.72 202.60 L 123.56 201.11 C 124.01 201.31 124.92 201.70 125.38 201.90 C 125.54 201.34 125.87 200.23 126.04 199.67 L 126.36 201.71 C 126.88 201.67 127.91 201.59 128.43 201.54 C 128.47 202.04 128.53 203.03 128.57 203.52 C 129.03 203.48 129.96 203.40 130.43 203.37 L 130.56 204.16 C 132.81 205.85 135.07 207.55 137.56 208.87 L 137.56 209.81 L 139.31 209.40 C 139.40 209.91 139.57 210.93 139.66 211.44 C 140.10 211.41 140.99 211.35 141.44 211.33 L 141.62 212.20 C 143.62 213.35 145.45 214.78 147.11 216.38 C 147.45 216.37 148.12 216.35 148.46 216.34 L 148.58 217.14 C 149.42 217.71 150.26 218.29 151.09 218.89 C 153.03 220.48 155.11 221.90 157.33 223.09 C 157.39 223.30 157.52 223.72 157.59 223.93 C 159.67 225.03 161.60 226.41 163.50 227.81 L 163.54 228.64 C 164.00 228.61 164.90 228.54 165.36 228.51 C 165.43 229.01 165.56 230.01 165.63 230.51 C 166.11 230.45 167.08 230.34 167.57 230.28 L 167.57 231.67 C 168.04 231.57 168.98 231.37 169.45 231.27 L 169.35 232.19 C 171.09 233.37 172.80 234.60 174.52 235.81 L 174.53 236.67 C 175.01 236.63 175.98 236.54 176.46 236.50 C 176.50 236.98 176.58 237.94 176.61 238.42 C 176.99 238.40 177.74 238.35 178.12 238.32 C 179.54 239.22 180.98 240.11 182.18 241.30 C 182.52 241.31 183.19 241.33 183.52 241.34 L 183.38 242.58 L 184.63 242.37 C 184.57 243.13 184.47 244.65 184.41 245.42 C 180.46 245.42 176.51 245.28 172.57 245.56 C 172.47 270.25 172.60 294.93 172.51 319.62 L 173.79 319.26 L 173.36 320.50 C 180.40 320.43 187.44 320.63 194.47 320.36 C 194.76 309.42 194.68 298.46 194.50 287.51 C 191.54 287.40 188.58 287.41 185.62 287.43 C 185.58 286.10 185.54 284.77 185.51 283.45 L 186.68 283.61 L 186.54 282.25 C 187.01 282.36 187.95 282.58 188.42 282.69 L 188.30 281.74 C 188.68 281.48 189.44 280.95 189.82 280.68 C 190.73 280.21 191.64 279.74 192.55 279.27 L 192.51 278.82 C 194.23 277.61 195.93 276.38 197.66 275.21 L 197.54 274.26 C 198.01 274.38 198.94 274.60 199.41 274.71 L 199.46 273.33 C 199.95 273.38 200.91 273.47 201.40 273.51 C 201.45 273.02 201.56 272.04 201.62 271.55 C 202.09 271.59 203.03 271.65 203.50 271.69 L 203.55 270.35 C 203.99 270.39 204.88 270.45 205.32 270.48 C 205.41 269.96 205.59 268.92 205.69 268.40 L 207.40 268.76 L 207.57 267.42 C 207.90 267.41 208.56 267.39 208.90 267.38 C 210.48 265.67 212.45 264.39 214.41 263.16 L 214.54 262.31 C 215.01 262.36 215.96 262.46 216.43 262.50 C 216.48 262.03 216.57 261.09 216.62 260.62 C 217.09 260.63 218.02 260.63 218.49 260.64 L 218.59 259.40 C 218.92 259.39 219.58 259.38 219.91 259.37 C 221.54 257.83 223.36 256.52 225.10 255.12 C 226.09 254.22 227.26 253.59 228.49 253.08 L 228.47 252.32 C 228.81 252.32 229.48 252.32 229.82 252.32 C 231.28 251.13 232.85 250.02 234.02 248.52 C 235.53 248.46 237.03 248.43 238.55 248.43 C 238.55 248.89 238.55 249.83 238.56 250.30 C 239.28 250.38 240.73 250.53 241.45 250.61 L 241.39 251.77 L 242.66 251.41 L 242.49 252.73 C 242.97 252.68 243.93 252.59 244.41 252.54 C 244.45 253.02 244.51 253.97 244.55 254.44 C 245.03 254.41 246.00 254.36 246.49 254.34 L 246.52 255.64 C 246.86 255.66 247.54 255.70 247.88 255.72 C 248.59 256.61 249.45 257.33 250.44 257.88 L 250.34 258.68 L 251.68 258.27 L 251.47 259.67 C 251.96 259.57 252.93 259.37 253.41 259.27 L 253.47 260.44 C 254.43 260.42 255.39 260.40 256.36 260.39 C 256.36 258.10 256.39 255.81 256.46 253.53 C 260.54 253.34 264.62 253.34 268.71 253.36 C 268.91 258.09 268.84 262.83 268.78 267.57 L 269.59 267.11 C 269.54 268.60 269.51 270.10 269.48 271.60 L 270.18 271.55 C 270.40 272.83 271.15 273.56 272.45 273.75 C 272.51 273.99 272.64 274.47 272.70 274.72 L 274.40 274.18 L 274.57 275.74 C 275.04 275.63 275.97 275.42 276.43 275.31 C 276.43 275.62 276.43 276.23 276.43 276.54 C 289.42 276.29 302.41 276.53 315.40 276.41 C 315.43 275.64 315.48 274.11 315.50 273.35 C 315.72 273.41 316.16 273.53 316.37 273.59 C 316.28 270.49 316.29 267.39 316.40 264.29 L 315.27 264.56 C 315.39 264.03 315.63 262.97 315.75 262.45 L 314.28 262.81 L 314.59 261.63 C 312.47 261.69 310.35 261.74 308.24 261.79 C 308.33 260.70 308.51 258.51 308.61 257.42 C 309.06 257.48 309.97 257.58 310.43 257.63 L 310.45 256.78 C 312.74 255.12 315.04 253.46 317.53 252.11 L 317.50 251.27 C 317.99 251.32 318.95 251.42 319.43 251.47 C 319.48 250.98 319.56 250.01 319.60 249.53 C 320.08 249.57 321.04 249.65 321.52 249.69 L 321.33 248.47 L 322.15 248.48 C 322.71 248.12 323.85 247.38 324.42 247.01 C 324.43 246.76 324.47 246.26 324.49 246.00 C 325.84 241.58 324.93 236.91 325.30 232.38 C 328.97 232.32 332.65 232.28 336.32 232.50 C 336.37 233.17 336.46 234.49 336.51 235.15 C 337.11 236.11 337.70 237.08 338.28 238.07 C 338.30 237.75 338.35 237.11 338.37 236.79 C 340.07 236.30 341.11 234.88 342.12 233.54 C 342.45 233.59 343.11 233.67 343.43 233.72 L 343.54 232.39 C 344.03 232.40 345.01 232.41 345.51 232.42 C 345.50 232.00 345.49 231.15 345.48 230.73 C 346.12 230.62 347.39 230.42 348.03 230.31 C 348.94 227.50 352.33 228.52 354.56 228.25 L 354.52 229.68 C 354.99 229.64 355.94 229.57 356.42 229.53 C 356.46 230.01 356.56 230.97 356.60 231.45 C 357.08 231.40 358.03 231.30 358.50 231.25 L 358.49 232.10 C 361.45 233.63 363.97 235.83 366.60 237.85 L 366.57 238.75 C 367.03 238.64 367.94 238.43 368.40 238.32 L 368.46 239.67 C 368.94 239.63 369.90 239.53 370.38 239.49 C 370.44 239.98 370.56 240.97 370.63 241.46 C 371.09 241.43 372.01 241.38 372.47 241.35 L 372.53 242.61 C 372.86 242.63 373.51 242.67 373.84 242.69 C 376.05 244.90 378.72 246.56 381.43 248.09 C 381.46 248.43 381.51 249.09 381.54 249.42 C 382.02 249.41 382.98 249.37 383.46 249.36 L 383.53 250.66 C 383.86 250.66 384.54 250.67 384.88 250.67 C 385.67 251.46 386.50 252.22 387.38 252.94 L 387.58 253.75 C 388.04 253.65 388.97 253.44 389.43 253.33 L 389.30 254.70 L 390.65 254.39 L 390.47 255.67 C 390.82 255.67 391.52 255.67 391.87 255.66 C 392.64 256.51 393.53 257.24 394.52 257.83 L 394.35 258.57 L 395.54 258.41 C 395.51 259.41 395.44 261.42 395.41 262.42 C 393.03 262.39 390.66 262.39 388.28 262.42 L 388.74 263.68 L 387.49 263.32 C 387.54 267.08 387.52 270.83 387.60 274.59 C 388.08 274.50 389.04 274.33 389.51 274.24 L 389.36 275.55 C 392.04 275.59 394.72 275.61 397.41 275.66 C 397.43 276.68 397.45 277.70 397.47 278.72 L 398.26 278.51 C 398.25 280.55 398.28 282.60 398.33 284.65 C 403.75 284.72 409.17 284.71 414.59 284.65 C 414.80 278.62 414.71 272.59 414.65 266.55 C 414.93 266.53 415.50 266.50 415.78 266.48 C 415.69 266.00 415.51 265.05 415.42 264.58 C 416.90 264.57 418.39 264.57 419.89 264.59 L 419.22 263.20 C 419.55 263.57 420.19 264.29 420.52 264.66 C 426.18 264.81 431.86 264.94 437.50 264.35 C 437.78 258.08 437.73 251.79 437.55 245.52 C 435.18 245.44 432.83 245.39 430.48 245.36 L 430.82 244.14 L 429.64 244.59 C 429.62 244.04 429.59 242.93 429.57 242.38 L 430.75 242.54 C 430.68 242.08 430.55 241.15 430.49 240.69 C 430.91 240.65 431.76 240.56 432.18 240.51 C 432.71 239.18 433.28 237.86 433.82 236.52 C 434.25 236.56 435.12 236.65 435.55 236.69 C 435.54 236.42 435.51 235.87 435.49 235.60 C 437.53 235.61 439.57 235.59 441.62 235.58 L 441.34 234.37 L 442.50 234.63 C 442.61 233.35 442.73 232.07 442.85 230.80 C 444.03 230.66 445.21 230.53 446.40 230.41 C 450.45 229.74 454.54 229.76 458.64 229.73 L 458.31 228.45 L 459.39 228.47 C 459.48 227.86 459.65 226.65 459.74 226.04 C 461.34 225.12 462.92 224.16 464.53 223.23 L 464.59 222.12 C 465.06 222.31 465.99 222.70 466.46 222.89 C 466.46 222.59 466.46 221.98 466.46 221.67 C 468.13 221.69 469.81 221.70 471.49 221.70 C 471.49 222.00 471.49 222.59 471.49 222.88 C 471.97 222.72 472.92 222.40 473.40 222.24 L 473.45 223.67 C 473.84 223.67 474.61 223.65 474.99 223.64 C 476.66 225.86 478.29 228.11 479.88 230.40 C 484.72 230.54 489.57 230.35 494.41 230.58 C 494.45 231.33 494.52 232.83 494.56 233.58 L 495.67 233.50 C 495.62 234.01 495.51 235.01 495.46 235.52 C 495.99 235.46 497.06 235.35 497.60 235.29 L 497.65 236.17 C 499.62 236.23 501.60 236.34 503.59 236.47 C 503.59 236.95 503.58 237.90 503.57 238.37 C 504.05 238.42 505.00 238.53 505.48 238.58 C 505.48 238.92 505.48 239.59 505.48 239.93 C 506.34 241.37 506.87 242.94 507.07 244.63 C 505.03 244.68 503.01 244.72 500.99 244.75 C 500.55 245.73 500.11 246.70 499.66 247.67 C 499.63 249.34 499.60 251.01 499.56 252.69 L 500.39 252.32 C 500.40 253.16 500.41 254.83 500.41 255.66 L 499.61 255.29 C 499.64 257.37 499.64 259.45 499.62 261.54 L 501.72 262.00 L 499.59 262.47 C 499.71 266.87 499.70 271.27 499.57 275.67 L 500.44 275.37 C 500.48 276.14 500.55 277.69 500.58 278.47 C 511.58 279.04 522.63 278.87 533.64 278.56 L 533.23 277.52 L 534.54 277.56 L 534.53 276.26 L 535.51 276.60 C 535.56 266.22 535.75 255.83 535.39 245.45 C 532.77 245.24 530.15 245.18 527.54 245.29 C 527.60 245.02 527.72 244.48 527.78 244.21 L 526.68 244.50 C 526.66 243.87 526.63 242.62 526.61 241.99 C 527.03 241.32 527.45 240.65 527.88 239.98 C 531.59 237.93 534.65 234.91 538.41 232.92 C 538.45 232.58 538.55 231.90 538.60 231.57 C 539.08 231.59 540.03 231.63 540.50 231.66 L 540.53 230.35 C 540.88 230.36 541.57 230.39 541.91 230.40 C 543.26 229.18 544.67 228.01 546.08 226.84 C 546.54 226.67 547.46 226.34 547.91 226.17 C 548.55 225.24 549.39 224.56 550.43 224.13 L 550.38 223.31 L 551.66 223.72 L 551.52 222.41 C 551.85 222.38 552.51 222.34 552.84 222.32 C 554.18 221.18 555.59 220.11 557.01 219.07 C 560.60 216.86 563.70 213.93 567.41 211.91 C 567.45 211.67 567.52 211.20 567.56 210.96 C 568.91 210.50 570.41 210.14 571.09 208.71 C 571.45 208.68 572.17 208.63 572.53 208.61 L 572.38 207.29 L 573.65 207.80 C 573.61 207.46 573.54 206.78 573.50 206.44 C 575.73 206.49 578.18 206.03 580.09 207.50 C 580.41 207.51 581.06 207.54 581.38 207.55 C 581.43 208.04 581.54 209.01 581.60 209.49 C 582.07 209.46 583.01 209.39 583.47 209.36 L 583.51 210.68 C 583.97 210.65 584.90 210.58 585.36 210.54 C 585.41 211.04 585.52 212.04 585.57 212.54 C 586.05 212.49 587.02 212.39 587.50 212.34 L 587.54 213.60 C 587.88 213.59 588.56 213.57 588.90 213.56 C 589.68 214.39 590.50 215.18 591.35 215.94 L 591.41 216.13 C 591.78 216.47 592.51 217.17 592.88 217.52 L 593.67 217.20 C 593.63 217.51 593.56 218.14 593.53 218.45 C 594.25 218.42 595.71 218.35 596.44 218.32 C 596.45 217.95 596.49 217.23 596.51 216.86 C 596.98 215.06 597.30 213.22 597.49 211.36 C 601.55 211.30 605.62 211.29 609.69 211.41 C 609.81 216.78 609.80 222.16 609.69 227.54 L 610.50 227.27 C 610.53 228.35 610.58 229.42 610.63 230.50 C 611.09 230.44 612.01 230.33 612.47 230.28 L 612.52 231.62 C 612.89 231.62 613.61 231.62 613.97 231.62 C 614.48 233.34 616.14 233.47 617.65 233.69 L 617.56 234.35 C 622.55 234.27 627.55 234.23 632.55 234.37 L 632.44 233.55 C 633.17 233.49 634.63 233.36 635.36 233.29 C 635.78 222.00 635.49 210.70 635.51 199.40 L 634.23 199.65 L 634.47 198.17 C 633.97 198.35 632.96 198.70 632.46 198.88 L 632.60 197.65 C 630.62 197.71 628.61 197.74 626.64 197.75 C 627.28 195.74 628.58 194.10 629.93 192.53 C 630.31 192.56 631.08 192.63 631.46 192.67 L 631.54 191.46 C 631.87 191.41 632.52 191.33 632.84 191.28 C 634.30 190.12 635.80 188.99 637.16 187.70 C 637.49 187.67 638.14 187.61 638.47 187.59 L 638.54 186.36 C 638.88 186.35 639.56 186.34 639.91 186.33 C 641.25 185.06 642.73 183.94 644.17 182.78 C 644.49 182.74 645.14 182.65 645.47 182.61 L 645.61 181.89 C 646.59 181.29 647.41 180.52 648.09 179.58 C 648.44 179.60 649.14 179.65 649.49 179.67 L 649.31 178.69 C 650.41 178.22 651.52 177.75 652.63 177.29 L 652.48 176.29 C 652.96 176.34 653.94 176.45 654.42 176.50 C 654.46 176.01 654.54 175.03 654.59 174.54 C 655.05 174.58 655.99 174.65 656.45 174.68 L 656.58 173.77 C 658.58 172.63 660.49 171.31 662.10 169.65 C 662.44 169.64 663.11 169.62 663.44 169.61 L 663.52 168.37 C 663.98 168.38 664.90 168.41 665.36 168.42 C 665.42 167.93 665.55 166.94 665.62 166.45 C 666.09 166.52 667.03 166.64 667.50 166.71 L 667.42 165.38 C 670.00 165.23 672.91 164.57 675.11 166.40 C 675.29 166.48 675.66 166.64 675.85 166.72 C 677.98 168.81 680.55 170.37 682.96 172.11 C 683.78 172.69 684.61 173.26 685.45 173.83 L 685.38 174.65 L 686.55 174.23 C 686.67 174.77 686.91 175.85 687.04 176.38 C 687.15 175.85 687.37 174.77 687.49 174.23 L 688.90 174.81 L 688.19 173.35 C 688.46 173.40 689.01 173.50 689.29 173.55 C 689.30 171.83 689.35 170.12 689.42 168.41 C 693.09 168.23 696.76 168.26 700.43 168.54 C 700.81 173.89 700.07 179.25 700.62 184.61 L 701.75 184.47 C 701.70 184.83 701.58 185.54 701.53 185.90 C 703.80 187.12 705.90 188.64 708.05 190.06 C 709.43 191.11 710.80 192.18 712.10 193.35 C 712.44 193.38 713.12 193.45 713.46 193.48 C 713.57 194.57 713.78 196.76 713.89 197.85 C 712.05 197.77 710.25 197.69 708.43 197.60 L 708.69 198.80 L 707.17 198.50 C 707.32 198.98 707.61 199.93 707.75 200.41 C 707.47 200.43 706.92 200.47 706.64 200.49 C 706.77 218.82 706.70 237.15 706.68 255.48 L 707.81 255.51 C 707.66 256.00 707.37 256.98 707.22 257.47 L 708.59 257.32 L 708.54 258.09 C 709.47 258.74 710.32 259.48 711.11 260.32 C 711.46 260.33 712.17 260.36 712.52 260.37 L 712.51 261.66 C 712.86 261.64 713.54 261.62 713.88 261.61 C 714.80 262.53 715.81 263.37 716.85 264.18 C 717.68 264.73 718.53 265.29 719.39 265.84 L 719.54 266.65 C 720.01 266.62 720.94 266.56 721.40 266.53 C 721.45 266.88 721.55 267.58 721.59 267.93 C 724.34 269.37 726.96 271.09 729.17 273.28 C 729.51 273.31 730.17 273.36 730.50 273.38 L 730.56 274.61 C 730.90 274.61 731.57 274.60 731.91 274.59 C 733.28 275.86 734.72 277.06 736.14 278.29 C 736.48 278.32 737.15 278.39 737.49 278.43 L 737.51 279.70 C 737.98 279.65 738.91 279.53 739.38 279.47 C 739.45 279.97 739.58 280.96 739.64 281.46 C 740.11 281.43 741.04 281.36 741.51 281.33 L 741.33 282.64 L 742.61 282.23 C 742.61 282.57 742.60 283.27 742.60 283.62 L 744.46 283.28 L 744.59 284.79 C 745.07 284.65 746.05 284.36 746.53 284.22 L 746.31 285.43 C 753.72 285.35 761.13 285.21 768.54 285.48 L 768.42 287.33 C 768.76 287.35 769.43 287.40 769.76 287.43 L 769.43 288.66 L 770.48 288.42 C 770.92 289.74 771.42 291.07 771.85 292.40 C 772.26 292.46 773.08 292.58 773.49 292.63 C 773.46 293.09 773.40 294.02 773.36 294.48 L 774.50 294.42 C 774.50 295.21 774.49 296.79 774.48 297.58 C 773.72 297.57 772.19 297.56 771.43 297.56 L 771.56 298.38 C 770.80 298.41 769.29 298.45 768.53 298.48 C 768.32 304.89 768.30 311.32 768.54 317.74 C 769.02 317.64 769.98 317.44 770.46 317.34 L 770.31 318.47 C 775.42 318.29 780.53 318.32 785.65 318.41 L 785.46 317.27 C 785.98 317.39 787.01 317.61 787.53 317.73 C 787.96 305.83 787.61 293.91 787.72 282.01 C 787.61 250.43 787.94 218.85 787.56 187.28 C 787.03 187.40 785.96 187.65 785.42 187.78 C 785.44 187.50 785.47 186.96 785.49 186.68 C 784.42 186.70 782.28 186.74 781.21 186.76 C 781.29 185.92 781.46 184.24 781.54 183.40 C 782.04 183.48 783.02 183.63 783.52 183.71 L 783.65 182.47 C 784.11 182.53 785.04 182.66 785.50 182.73 L 785.58 181.35 C 786.06 181.44 787.01 181.63 787.48 181.72 L 787.61 180.36 C 788.08 180.45 789.02 180.65 789.49 180.75 L 789.34 179.35 L 790.67 179.72 L 790.56 178.34 C 791.04 178.44 792.01 178.64 792.49 178.75 L 792.56 177.39 C 793.03 177.46 793.96 177.60 794.43 177.67 L 794.60 176.15 L 796.35 176.64 L 796.40 175.24 C 796.90 175.33 797.90 175.50 798.40 175.59 C 798.41 175.34 798.43 174.85 798.44 174.61 C 800.09 173.74 801.74 172.86 803.43 172.06 L 803.46 171.29 C 803.82 171.30 804.52 171.32 804.88 171.34 C 805.51 169.77 807.10 169.52 808.55 169.17 L 808.40 168.28 L 809.68 168.71 L 809.65 167.21 L 811.32 167.80 C 811.39 167.41 811.54 166.63 811.62 166.24 C 812.07 166.36 812.97 166.62 813.41 166.75 L 813.40 165.51 C 815.58 164.41 818.00 164.14 820.41 164.57 C 821.62 165.55 822.95 166.38 824.40 167.01 L 824.37 167.79 L 825.71 167.36 L 825.48 168.77 C 825.96 168.67 826.91 168.47 827.39 168.37 L 827.52 169.74 C 828.00 169.63 828.97 169.41 829.45 169.30 L 829.50 170.65 C 829.87 170.63 830.59 170.59 830.95 170.57 C 831.54 172.12 833.03 172.51 834.51 172.82 L 834.33 173.29 C 835.41 173.77 836.49 174.24 837.59 174.72 L 837.56 175.84 C 838.03 175.67 838.98 175.33 839.46 175.16 L 839.30 176.29 C 840.37 176.74 841.46 177.18 842.56 177.63 C 842.59 177.91 842.67 178.47 842.70 178.74 L 844.35 178.08 C 844.43 178.48 844.59 179.28 844.68 179.68 L 845.78 179.54 C 848.12 181.36 850.73 182.83 853.52 183.88 C 853.59 184.60 853.73 186.04 853.80 186.76 C 852.96 186.74 851.28 186.71 850.43 186.69 L 850.75 187.57 C 849.68 187.56 848.62 187.54 847.58 187.53 C 847.65 201.78 847.49 216.04 847.66 230.29 C 857.44 230.68 867.23 230.33 877.01 230.50 C 878.92 230.63 880.80 230.22 882.56 229.50 C 882.37 208.53 882.68 187.55 882.40 166.59 C 881.62 166.58 880.06 166.58 879.28 166.58 L 879.63 165.44 L 878.29 165.50 C 878.17 162.75 879.76 160.61 882.47 160.14 L 882.43 159.70 C 883.50 159.25 884.58 158.79 885.67 158.34 L 885.53 157.93 C 887.47 156.96 889.38 155.93 891.35 154.98 L 891.34 154.73 C 892.28 154.25 893.21 153.76 894.17 153.27 C 894.73 153.01 895.84 152.49 896.40 152.23 L 896.40 151.73 C 898.04 150.82 899.66 149.91 901.36 149.09 C 901.41 148.87 901.51 148.43 901.56 148.21 L 903.27 148.68 C 903.32 148.33 903.42 147.64 903.48 147.29 L 904.68 147.63 L 904.50 146.84 C 905.93 146.50 907.34 146.00 908.09 144.61 C 908.43 144.63 909.13 144.67 909.48 144.68 L 909.41 143.40 C 911.78 143.38 914.15 143.40 916.54 143.48 L 916.47 144.74 C 916.83 144.71 917.55 144.65 917.91 144.62 C 918.52 146.12 919.96 146.56 921.43 146.87 L 921.40 147.77 L 922.74 147.46 C 922.72 147.91 922.66 148.79 922.64 149.23 C 924.13 149.25 925.63 149.27 927.14 149.28 C 927.34 147.67 927.54 146.07 927.75 144.47 C 930.02 144.31 932.31 144.27 934.61 144.32 C 934.54 144.86 934.41 145.94 934.35 146.48 L 935.46 146.52 C 935.40 149.36 935.37 152.20 935.55 155.03 C 936.39 155.66 937.22 156.31 938.05 156.97 C 939.02 157.68 940.01 158.32 941.03 158.99 C 942.26 160.18 943.93 160.49 945.57 160.81 L 945.41 161.71 L 946.67 161.34 C 946.63 163.06 946.60 164.78 946.56 166.50 C 945.85 166.50 944.44 166.48 943.74 166.48 C 943.44 167.04 942.85 168.16 942.56 168.72 C 942.63 197.65 942.70 226.58 942.52 255.50 C 944.20 256.25 945.99 256.61 947.85 256.67 L 947.57 257.18 C 966.60 257.25 985.65 256.82 1004.67 257.40 C 1004.59 257.91 1004.44 258.95 1004.36 259.47 L 1005.49 259.47 C 1005.79 262.21 1005.89 264.96 1005.73 267.71 L 1004.36 267.28 L 1004.43 268.61 C 1003.98 268.56 1003.08 268.46 1002.63 268.40 C 1002.62 275.78 1002.61 283.15 1002.62 290.52 L 1003.82 290.14 C 1003.71 290.52 1003.47 291.28 1003.36 291.66 L 1004.31 291.24 C 1004.66 291.61 1005.37 292.36 1005.73 292.74 L 1005.38 293.64 C 1005.90 293.58 1006.94 293.46 1007.46 293.41 L 1007.51 294.68 C 1008.00 294.57 1008.97 294.33 1009.46 294.22 C 1009.52 294.57 1009.64 295.29 1009.70 295.65 L 1011.45 295.10 L 1011.61 296.65 C 1012.08 296.53 1013.00 296.29 1013.47 296.17 C 1013.49 296.40 1013.53 296.87 1013.56 297.10 C 1015.53 297.28 1017.24 298.23 1018.70 299.54 C 1019.96 299.56 1021.22 299.57 1022.51 299.58 C 1022.54 241.85 1022.55 184.12 1022.50 126.40 L 1021.26 126.74 L 1021.61 125.51 C 1020.22 125.50 1018.85 125.51 1017.49 125.51 L 1017.46 124.47 L 1016.35 124.60 C 1016.31 120.84 1016.27 117.08 1016.44 113.33 C 1018.77 113.25 1021.10 113.23 1023.45 113.28 C 1023.41 113.05 1023.34 112.59 1023.31 112.36 C 1024.05 112.35 1025.53 112.32 1026.27 112.30 C 1026.35 110.61 1026.42 108.92 1026.50 107.23 L 1027.63 107.72 L 1027.34 106.51 C 1042.28 106.49 1057.22 106.39 1072.16 106.57 C 1072.61 108.41 1073.21 110.22 1073.81 112.03 C 1074.87 112.47 1075.96 112.94 1077.04 113.43 C 1082.22 113.52 1087.41 113.44 1092.61 113.49 L 1092.38 112.45 C 1094.05 112.50 1095.73 112.55 1097.42 112.62 C 1097.76 116.65 1097.72 120.69 1097.61 124.73 C 1097.08 124.72 1096.02 124.68 1095.49 124.66 L 1095.66 125.69 C 1094.29 125.60 1092.94 125.51 1091.60 125.43 L 1091.70 126.72 L 1090.60 126.55 C 1089.45 135.33 1089.91 144.19 1089.83 153.03 C 1089.80 169.74 1089.89 186.46 1089.78 203.18 C 1090.71 203.27 1091.66 203.36 1092.62 203.45 L 1092.52 202.21 C 1093.00 202.36 1093.95 202.66 1094.43 202.81 L 1094.35 201.86 C 1094.71 201.52 1095.45 200.84 1095.81 200.49 L 1096.33 200.67 C 1097.23 199.65 1098.16 198.64 1099.07 197.61 C 1099.43 197.63 1100.15 197.68 1100.51 197.70 L 1100.48 196.90 C 1102.51 195.36 1104.44 193.69 1106.45 192.12 L 1106.45 191.79 C 1108.13 190.59 1109.80 189.35 1111.51 188.16 L 1111.51 187.83 C 1113.19 186.64 1114.84 185.39 1116.52 184.17 L 1116.54 183.90 C 1117.72 182.94 1118.91 181.97 1120.14 181.04 C 1120.89 180.39 1121.62 179.71 1122.33 178.98 C 1122.37 179.46 1122.45 180.42 1122.49 180.90 C 1122.97 180.73 1123.95 180.40 1124.44 180.23 L 1124.28 181.68 L 1125.62 181.47 C 1125.60 181.97 1125.56 182.96 1125.53 183.45 C 1126.03 183.43 1127.02 183.38 1127.51 183.36 L 1127.36 184.21 C 1129.07 185.40 1130.77 186.63 1132.50 187.81 L 1132.51 188.18 C 1134.18 189.38 1135.83 190.65 1137.50 191.88 L 1137.30 192.32 C 1137.67 192.54 1138.42 193.00 1138.79 193.23 C 1141.15 195.20 1143.65 197.00 1146.04 198.94 C 1146.81 199.59 1147.60 200.24 1148.41 200.89 L 1148.47 201.54 C 1149.50 201.60 1151.55 201.72 1152.58 201.78 C 1152.50 183.63 1152.51 165.49 1152.58 147.34 C 1150.81 147.46 1149.10 147.64 1147.35 147.57 C 1148.48 147.37 1149.63 147.24 1150.81 147.11 L 1150.71 146.42 L 1147.48 146.50 L 1147.38 145.20 C 1146.96 145.33 1146.12 145.59 1145.70 145.72 C 1145.64 144.89 1145.53 143.24 1145.48 142.41 C 1145.74 142.45 1146.26 142.53 1146.52 142.57 C 1146.58 140.56 1146.66 138.56 1146.72 136.55 C 1147.01 136.55 1147.58 136.53 1147.87 136.52 C 1147.75 136.04 1147.51 135.09 1147.39 134.61 C 1148.49 134.58 1149.60 134.56 1150.73 134.55 L 1150.60 133.86 C 1152.51 133.76 1154.44 133.62 1156.37 133.47 C 1156.43 132.11 1156.51 130.75 1156.60 129.39 C 1157.06 129.40 1158.00 129.42 1158.47 129.43 C 1158.47 129.00 1158.48 128.13 1158.48 127.70 C 1161.88 127.74 1165.28 127.74 1168.69 127.60 L 1168.14 126.25 L 1169.47 126.59 C 1169.60 121.60 1169.43 116.61 1169.61 111.62 C 1170.99 111.57 1172.40 111.52 1173.81 111.49 L 1173.45 110.76 C 1174.42 110.77 1176.37 110.78 1177.34 110.79 L 1177.36 111.49 C 1178.66 111.56 1179.97 111.64 1181.29 111.72 C 1181.41 117.01 1181.24 122.30 1181.41 127.59 C 1185.21 127.29 1190.05 129.09 1193.10 126.12 C 1194.06 125.44 1195.05 124.79 1196.06 124.13 C 1198.19 122.50 1200.32 120.85 1202.45 119.20 C 1203.78 118.17 1205.13 117.16 1206.52 116.18 C 1207.82 115.15 1209.14 114.13 1210.50 113.15 L 1210.53 112.34 C 1211.00 112.37 1211.95 112.42 1212.42 112.45 C 1212.45 111.98 1212.51 111.05 1212.55 110.58 C 1213.03 110.61 1213.98 110.66 1214.46 110.68 L 1214.55 109.34 C 1215.02 109.36 1215.94 109.40 1216.41 109.42 C 1216.45 108.97 1216.53 108.06 1216.56 107.60 C 1217.06 107.63 1218.04 107.67 1218.54 107.69 L 1218.39 106.38 L 1219.72 106.65 L 1219.55 105.21 C 1220.01 105.36 1220.94 105.65 1221.40 105.80 C 1221.55 105.27 1221.85 104.20 1222.00 103.66 C 1222.15 104.20 1222.45 105.26 1222.60 105.80 C 1223.05 105.65 1223.94 105.35 1224.39 105.20 L 1224.61 106.05 C 1225.46 106.78 1226.30 107.55 1227.12 108.35 C 1227.47 108.36 1228.16 108.37 1228.50 108.38 L 1228.36 109.16 C 1228.73 109.52 1229.47 110.23 1229.85 110.59 L 1230.68 110.25 L 1230.59 111.64 C 1231.04 111.55 1231.95 111.37 1232.41 111.28 L 1232.61 112.09 C 1233.46 112.83 1234.29 113.61 1235.10 114.43 C 1235.45 114.42 1236.16 114.41 1236.51 114.40 L 1236.34 115.72 L 1237.67 115.33 L 1237.45 116.69 C 1237.94 116.64 1238.93 116.54 1239.42 116.50 C 1239.47 116.98 1239.57 117.95 1239.62 118.44 C 1240.08 118.42 1241.00 118.38 1241.46 118.36 L 1241.50 119.68 C 1241.96 119.66 1242.90 119.63 1243.37 119.61 C 1243.43 120.10 1243.55 121.07 1243.61 121.56 C 1244.08 121.50 1245.00 121.38 1245.46 121.33 L 1245.42 122.23 C 1247.35 123.59 1249.31 124.94 1251.39 126.10 C 1251.45 126.45 1251.57 127.15 1251.64 127.50 C 1252.11 127.44 1253.07 127.31 1253.55 127.25 L 1253.44 128.43 C 1256.16 128.40 1258.88 128.39 1261.62 128.43 L 1261.43 127.61 L 1264.15 127.12 L 1261.88 125.84 L 1263.55 125.67 C 1263.80 120.98 1263.28 116.29 1263.53 111.59 C 1267.48 111.34 1271.45 111.34 1275.41 111.66 C 1275.57 116.98 1275.36 122.31 1275.55 127.63 C 1277.91 127.72 1280.28 127.69 1282.67 127.56 C 1282.58 127.05 1282.39 126.03 1282.30 125.51 L 1283.49 125.68 C 1283.41 114.59 1283.39 103.49 1283.50 92.40 L 1282.29 92.64 L 1282.45 91.21 C 1281.95 91.37 1280.94 91.70 1280.44 91.87 L 1280.55 90.76 C 1278.87 90.71 1277.21 90.63 1275.57 90.55 C 1275.65 85.21 1275.40 79.87 1275.68 74.53 C 1277.51 71.91 1281.63 73.86 1284.41 73.39 C 1284.44 73.09 1284.50 72.48 1284.52 72.18 C 1284.98 72.29 1285.91 72.52 1286.37 72.63 C 1286.42 72.15 1286.51 71.19 1286.56 70.71 C 1286.86 69.89 1287.44 68.25 1287.74 67.43 C 1302.76 67.46 1317.80 67.15 1332.82 67.59 C 1332.84 67.15 1332.88 66.26 1332.90 65.82 C 1333.23 68.05 1333.64 70.29 1334.44 72.42 C 1336.18 72.74 1337.93 73.11 1339.70 73.42 C 1341.00 73.43 1342.29 73.45 1343.63 73.47 C 1343.55 73.76 1343.39 74.33 1343.32 74.62 L 1344.39 74.46 C 1344.31 79.82 1344.36 85.18 1344.36 90.55 C 1343.89 90.50 1342.94 90.41 1342.46 90.37 L 1342.63 91.43 C 1341.17 91.44 1339.73 91.45 1338.31 91.46 L 1338.80 92.72 L 1337.53 92.38 C 1337.41 133.13 1337.41 173.88 1337.53 214.62 C 1337.87 214.62 1338.53 214.63 1338.86 214.63 L 1337.75 216.54 L 1339.57 216.26 L 1339.39 217.55 C 1342.12 217.68 1344.87 217.70 1347.64 217.57 L 1347.49 215.65 L 1348.86 215.50 C 1348.71 214.99 1348.40 213.98 1348.25 213.48 L 1349.63 213.49 C 1349.55 213.00 1349.39 212.02 1349.31 211.53 C 1355.75 211.46 1362.20 211.62 1368.65 211.46 C 1368.54 210.98 1368.33 210.02 1368.23 209.54 C 1368.50 209.53 1369.05 209.49 1369.32 209.47 C 1369.31 207.08 1369.36 204.69 1369.45 202.30 C 1375.48 202.37 1381.51 202.42 1387.55 202.51 C 1387.71 206.77 1387.66 211.03 1387.67 215.30 C 1387.98 215.31 1388.59 215.34 1388.89 215.36 L 1388.54 216.73 C 1389.02 216.61 1389.98 216.35 1390.46 216.23 L 1390.29 217.66 C 1390.64 217.55 1391.35 217.32 1391.70 217.21 L 1391.56 218.31 C 1392.52 218.31 1394.43 218.32 1395.39 218.32 C 1395.39 218.08 1395.39 217.58 1395.40 217.33 C 1396.13 217.34 1397.58 217.35 1398.31 217.35 C 1398.35 216.33 1398.41 215.31 1398.48 214.30 L 1399.36 214.57 C 1399.24 169.50 1399.25 124.42 1399.35 79.35 C 1401.39 79.32 1403.44 79.30 1405.51 79.32 C 1405.51 79.01 1405.51 78.40 1405.51 78.10 C 1405.97 78.23 1406.89 78.50 1407.35 78.63 C 1407.79 70.87 1407.49 63.09 1407.54 55.32 L 1408.69 55.65 L 1408.27 54.38 C 1409.99 54.36 1411.73 54.35 1413.48 54.35 C 1413.49 54.06 1413.52 53.49 1413.53 53.20 C 1414.01 53.32 1414.98 53.55 1415.46 53.66 C 1415.74 48.25 1415.63 42.82 1415.52 37.40 L 1416.59 37.39 C 1416.55 36.94 1416.46 36.05 1416.42 35.61 C 1422.09 35.53 1427.76 35.76 1433.44 35.49 C 1433.70 32.14 1433.73 28.77 1433.62 25.42 L 1434.30 25.51 C 1434.50 20.15 1434.54 14.78 1434.56 9.42 L 1435.50 9.62 C 1435.51 6.41 1435.52 3.20 1435.60 0.00 Z" />
</g>
</svg>
