<svg 
 xmlns="http://www.w3.org/2000/svg"
 xmlns:xlink="http://www.w3.org/1999/xlink"
 width="1.014in" height="0.875in">
<path fill-rule="evenodd"  fill="rgb(255, 255, 255)"
 d="M52.101,0.040 C46.703,0.040 42.376,1.973 38.559,5.778 C38.557,5.780 38.555,5.782 38.553,5.784 C38.552,5.785 38.552,5.785 38.551,5.786 L36.382,8.508 L34.213,5.949 C34.211,5.947 34.209,5.945 34.206,5.942 C34.206,5.942 34.206,5.942 34.205,5.941 L34.205,5.941 C30.388,2.136 26.061,0.040 20.663,0.040 C15.265,0.040 10.189,2.136 6.372,5.941 C2.556,9.747 0.453,14.806 0.453,20.188 C0.453,25.567 2.553,30.624 6.366,34.430 L33.193,61.400 C34.037,62.247 35.184,62.724 36.382,62.724 C37.580,62.724 38.728,62.247 39.571,61.400 L66.396,34.431 C70.210,30.626 72.311,25.568 72.311,20.189 C72.311,14.807 70.209,9.747 66.392,5.941 C62.574,2.136 57.499,0.040 52.101,0.040 L52.101,0.040 Z"/>
</svg>