<?xml version="1.0" encoding="utf-8"?>
<!-- Generator: Adobe Illustrator 21.1.0, SVG Export Plug-In . SVG Version: 6.00 Build 0)  -->
<svg version="1.1" id="Слой_1" xmlns="http://www.w3.org/2000/svg" xmlns:xlink="http://www.w3.org/1999/xlink" x="0px" y="0px"
	 viewBox="0 0 1915 210.3" style="enable-background:new 0 0 1915 210.3;" xml:space="preserve">
<style type="text/css">
	.st0{fill:#FFFFFF;}
</style>
<g id="_x23_ffffffff">
	<path class="st0" d="M971.5,0c0.6,3.5,0.1,7,0.4,10.5c0.9,2.2,3.9,1.7,5.8,2.3c0.1,4.6,0,9.3,0,13.9c0.3,0.5,0.9,1.5,1.1,2
		c1.5,0.4,4.8-0.7,4.5,1.8c0.1,43.3,0,86.6,0,129.9c3.2-0.7,5.4-3.1,8-4.9c2.8-2.2,6.2-3.8,8.2-6.9c-0.2-21.9-0.1-43.8-0.1-65.7
		c-1.6-0.9-3.5-1.1-5.3-1.2c0.3-1,0.3-2.4,1.5-2.8c2.8-1.7,5.4-3.6,7.9-5.6c0.2-3.5,0.1-7,0.2-10.6c2.5-0.2,5.1-0.2,7.7,0
		c0.1,1.3,0.2,2.6,0.3,3.8c0.4,0,1.3,0,1.7,0c3.6-2.4,6.7-7,11.5-6.6c9.1,6.9,18.3,13.5,27.7,20c0,0.4-0.1,1.3-0.1,1.8
		c-1.8,0.1-3.5,0.1-5.1,0.9c0.2,9.5,0.1,19,0,28.6c0,1.3-0.1,2.7,0.5,3.9c4.2,1.6,8.7,2.8,13,4.3c2.8,0.8,5.5,1.7,8.3,2.6
		c12.6,4.2,25.3,7.8,37.8,12.1c2.7,2.5,4.8,5.9,6.1,9.3c-1.9,0-3.6,0.1-5.4,0.2c-0.3,5.6-0.3,11.3,0,16.9c4,0.3,7.9,0.3,11.9,0.1
		c0.2-12-0.1-24,0.1-36c-2.1-0.6-4.3-0.8-6.4-0.8c0.1-0.5,0.2-1.5,0.2-2c9.6-15,18.3-30.7,27.7-45.8c1.5-2.1,1.4-4.7,1.5-7.1
		c-0.6-0.3-1.8-1-2.4-1.3c0-0.4,0.1-1.1,0.1-1.5c1.2-0.9,2.2-2.1,2.5-3.6c0.8-0.1,1.7-0.1,2.5-0.2c0.5,1.5,1.4,2.9,2.8,3.8
		c0,0.3,0.1,0.9,0.1,1.2c-0.9,0.6-1.8,1.2-2.7,1.8c0.1,2.2,0,4.4,1.2,6.4c5.8,9.4,11.3,19,17,28.4c3.5,6.8,8.5,12.9,11.3,20.1
		c-2.1,0-4.1,0.1-6.2,0.1c-0.3,0.5-0.9,1.4-1.2,1.8c0.4,4.5-0.8,9.3,0.9,13.6c7.1,2.2,14.4,3.6,21.6,5.7c2,0.6,4.1,0.8,6.2,0.6
		c0-2.9,0.4-5.8-0.3-8.6c-2.5-1.1-5.3-0.4-8-0.6c0.2-0.8,0.4-1.6,0.6-2.3c5.3-3.4,10.5-7.1,15.4-11.1c1-4.4,0-9.1,0.5-13.6
		c3.3,0,6.6,0,9.8,0.1c0.1,1.8,0.2,3.6,0.3,5.4c5.2-2.4,9.4-6.6,14.3-9.6c13.7,9.2,26.6,19.5,40.4,28.7c0.1,0.8,0.2,1.6,0.3,2.4
		c-2.3,0-4.6,0.1-6.8,0.2c-0.3,0.6-1,1.8-1.3,2.4c0.3,5.1-0.8,10.5,1,15.4c6.8,0.2,13.7-0.1,20.5,0.2c2.1,4.1,5.4,7.4,6.6,11.9
		c-2.1,0.1-4.1,0.1-6.2,0.2c-0.3,6.9,0.1,13.9-0.2,20.8c3.8,1.5,7.9,0.5,11.9,0.8c0.9,0.3,1.6-0.7,2.3-1.1c-0.1-15.2,0-30.4,0-45.6
		c-2.5-0.2-5-0.2-7.5-0.2c0.2-0.6,0.6-1.7,0.8-2.2c4.1-2.8,8.4-5.4,12-8.9c0.1-3.8-0.5-7.7,0.2-11.4c2.7-0.7,6.3-1.4,8.5,0.8
		c-0.1,1.4-0.1,2.8-0.1,4.2c4.6-1.7,7.9-5.8,12.2-8.2c0.9-0.3,1.8-0.2,2.7,0.3c11.2,7.7,21.9,16.2,33.3,23.6c0,0.4-0.1,1.3-0.2,1.8
		c-2.3,0-4.6,0-6.9,0c-0.1,7.4-0.2,14.7,0.1,22.1c7.6,0.1,15.2,0,22.7,0c0.4-7.3,0.4-14.5,0-21.8c-1.4,0-2.8-0.1-4.2-0.1
		c-0.2-2.4,1.2-4.3,2.7-6.1c1.8-0.1,3.6-0.1,5.4-0.2c0.2-1.2,0.3-2.4,0.5-3.5c3.1,0,6.2,0,9.3-0.1c1.6-2.4,3.5-5.6,6.9-5.4
		c3.6-0.7,6.3,2.3,7.8,5.3c2.8,0.9,5.7,0.4,8.6,0.2c0.5,1.2,1,2.3,1.5,3.5c1.8,0.1,3.6,0.2,5.4,0.3c0.9,1.4,1.9,2.8,3,4
		c0,0.5,0.1,1.4,0.1,1.9c-1.7,0.1-3.4,0.4-5,0.9c0.2,7-0.1,14,0.2,21c2.8,0.1,5.7,0.1,8.6,0.3c0.4,7.5-0.2,15.1,0.3,22.6
		c3.3,0,6.9,0.9,9.9-1c-0.2-9.4-0.1-18.9-0.1-28.3c0-1.3-0.3-2.5-0.8-3.6c-1.6-0.3-4.4,1.3-4.9-1.2c2.2-2.2,5.6-2.7,8.2-4.5
		c1.1-0.5,2.3-1,3.4-1.5c0.7-4.2,0.1-8.5,0.5-12.8c2.3-0.1,4.5-0.1,6.8-0.1c0.1,2.7,0.1,5.5,0.1,8.2c1-0.2,2.2-0.1,3.2-0.7
		c6.3-3.3,12.7-6.4,19.1-9.6c1.5-1,3.4-1.3,5-0.2c3.3,1.6,6.6,3.4,10,5c5.4,2.6,10.6,5.4,16.1,7.9c1.3,0.8,2.6,1.4,4,2
		c3.6,1.9,7.2,3.7,11,5.2c0.1,0.6,0.3,1.8,0.4,2.4c-1.7,0-3.3,0.1-4.9,0.1c-0.3,5.5-0.2,11-0.2,16.5c-0.5,4.4,5.1,4.1,7.9,5.8
		c0.2,2.5,0.3,5,0.4,7.5c4.9,0.1,9.8,0.1,14.7,0c0.1-2.5,0.2-4.9,0.4-7.4c3.6-1.5,7.2-2.8,10.8-4.3c1.5-0.5,2.2-2.1,2.2-3.6
		c0.2-3.6,0.1-7.2-0.2-10.8c-1.8-0.1-3.5-0.1-5.2-0.1c-0.1-0.6-0.3-1.7-0.4-2.3c8.4-5.4,16.2-11.6,24.4-17.3c2-1.2,3.8-3.8,6.4-3.1
		c3,1.9,5.6,4.3,8.6,6.3c-0.4-4.7,4.8-4.1,7.9-4c1.2,3.7-1.7,9.1,2.4,11.4c3.2,2.4,6.5,4.7,9.8,6.9c-0.1,0.5-0.2,1.6-0.3,2.2
		c-1.9,0-3.8,0.1-5.7,0.2c0.2,1.7-0.6,3.9,1.1,5c3.8,0.2,7.7,0.1,11.5,0.1c1.4-1.2,2.9-2.4,4.4-3.4c0.4-4-0.2-8.1,0.4-12.1
		c2.2-0.9,4.7-0.5,7-0.3c2.2,0.8,0.9,3.7,1.4,5.4c5.3-1.5,8.6-6.8,13.7-8.5c3.2,1.3,5.8,4.1,8.7,6c5,3.7,10.2,7.2,15.1,11.1
		c1.4,0.1,2.8-0.3,4.1-0.9c1.7-0.7,3.3-1.3,5-2c1.5-0.6,2.9-1.1,4.5-1.5c0.4-2.4,0.3-4.9,0.5-7.3c1.1-2.4,3.8-3.5,5.5-5.4
		c1.3-2.8-1.9-8.5,3.1-8.1c0.1,2.4-0.1,4.9,0.2,7.3c1.7,2,3.5,3.9,5.8,5.3c0.1,2.1,0.2,4.2,0.2,6.3c0.3,0.4,1,1.3,1.3,1.8
		c6.4,2.8,13.2,4.9,19.5,7.8c0.2,7.2-0.1,14.3,0.2,21.5c1.6,0.1,3.2,0.2,4.9,0.3c0.2-2.8-0.1-5.7,0.9-8.3c0.7,0,2,0.1,2.7,0.1
		c0.3-0.5,0.9-1.6,1.2-2.1c0-2.9-0.1-5.8,0.1-8.7c4.3-0.1,8.7-0.1,13-0.1c0,1.9,0.1,3.9,0,5.8c1.9,2,4.9,1.2,7.5,1.4
		c2.6-0.2,5.5,0.4,7.9-0.8c1.8-2.5-0.9-5.1-0.4-7.8c2.7-1.4,2.1-4.4,2.3-6.9c1.5,0.1,3,0.2,4.5,0.3c0.9-0.7,1.8-1.4,2.7-2.1
		c3.3,2.7,6.3,5.8,9.9,8.1c3.8-0.8,5.8-5.3,9.3-7c1.1-0.3,2.1-0.1,2.9,0.7c3,2.2,5.6,5.1,8.8,7.1c2.7-2.8,5.8-5.4,8.9-7.8
		c4.2,0.5,6.7,5.1,10.2,7.2c4.4,0.1,6.3-5.2,10-7c2.7,0.6,5.3,1.3,8.2,1c0,1.8-0.1,3.6-0.1,5.5c1.6,1.9,3.8,3.6,4,6.3
		c-0.4,0-1.2,0-1.6,0c-2.1,4.2-0.6,9.1-1,13.6c0.3,2.7-1,6.2,1.5,8c4.7,0.4,9.7,0.8,14.3-0.7c-0.1-5.6,0-11.2,0-16.8
		c-1.8-0.1-3.5-0.1-5.2-0.2c0.1-0.8,0.3-1.6,0.5-2.3c3.4-2,6.7-4.3,9.7-6.8c0.6-2.8,0.2-5.8,0.3-8.7c2.1-0.1,4.3-0.1,6.4-0.1
		c0.5,1.1,1.2,2.1,1.7,3.2c2.9-1.9,5.5-6.3,9.5-5.1c7.6,5.4,15.1,11,22.8,16.4c1.1,0.9,2.9,1.6,2.6,3.4c-1.7,0-3.4,0.1-5.1,0.1
		c-1.3,3.7-0.7,7.7-0.8,11.5c0.1,3.8-0.6,7.8,0.8,11.4c2.6,0.1,5.2,0,7.8-0.1c0.1-3.5,0.1-7,0-10.5c-0.7-0.2-2.1-0.5-2.8-0.6
		c-0.1-2.8,3-3.5,4.7-5c2.8-2.3,6.1-4.1,8.7-6.7c1.3-0.1,2.6-0.1,3.9,0c3.3,3.4,7.4,5.6,11.1,8.5v26.8H0v-60.1l0.6,1
		c1.8-2.4,4.8-0.2,7.2-0.2c0.2,4-0.4,8.1,0.8,12.1c1.8,1.1,3.4,2.8,5.6,2.8c4.4,0.2,8.8,0.1,13.2,0c0.2-2,0.3-4,1.2-5.9
		c6.3,0.1,12.5,0.3,18.8-0.1c0.5-2.9,0.5-5.9,0.5-8.9c1.5-0.1,3.1-0.3,4.6-0.4c0.6-3.6,0.4-7.2,0.3-10.8c-2.7,0.1-5.4,0.1-8.1,0
		c0-0.4,0-1.2,0-1.6c5.5-3.3,10.3-7.6,15.8-10.9c0.6-4.1,0.2-8.4,0.3-12.5c3.3-0.3,6.6-0.3,9.9-0.1c0.1,1.3,0.1,2.7,0.2,4
		c0.4,0,1.3,0,1.7,0c3.1-3.2,7.2-5.1,10.4-8.2c2.1,0.1,3.7,1.4,5.3,2.7c10.1,7.3,20.1,14.5,30.1,21.8c1.9,1.3,4.7,2.1,4.8,4.8
		c-2.6,0-5.1,0-7.7-0.1c-0.3,16.7-0.2,33.4,0,50.2c4.8,0,9.5,0.1,14.3-0.1c0.1-7.3,0.1-14.6,0-21.9c-2,0-4,0-6,0
		c0-0.9,0.1-1.7,0.1-2.6c11.4-7.4,22-16.2,33.4-23.6c5,1.8,8.3,6.8,13.4,8.5c0.1-1.7,0.1-3.4,0.2-5.1c2.9-0.1,5.8-0.1,8.6-0.1
		c0.4,4.1-0.1,8.2,0.4,12.3c1.3,1.5,3.2,2.4,4.9,3.4c8.5-0.1,17.1,0,25.6,0c0.3-3,0.5-6.1,0.1-9.1c-1.4-1.4-3.5-0.6-4.8,0.4
		c0-1.4-0.7-3.3,0.9-4.1c3.3-2.4,6.8-4.6,9.9-7.2c0-3.2,0-6.4,0.1-9.6c2.3,0,4.6-0.1,6.9-0.2c0.4,1.1,0.9,2.2,1.3,3.3
		c3.5-1.3,6-4.2,9.1-6.1c0.3-0.1,0.9-0.2,1.2-0.2c5.4,4.4,11.3,8.2,16.9,12.4c3.8,2.7,7.4,5.7,11.5,8c0,1.2-0.1,2.5-0.1,3.7
		c-1.3-1.7-3.4-1-5-0.2c0.1,2.6,0.1,5.3,0.2,7.9c1.8,0.2,3.7,0.3,5.5,0.5c2.1,1.2,0.8,4,1.3,5.8c3.7,0.1,7.4,0.1,11.1,0
		c0.2-4.4,0-8.8,0.2-13.2c5-0.4,10,0.7,14.9-0.3c0.3-4.2,0.2-8.5,0-12.7c-1.7-0.1-3.4-0.1-5.1-0.2c0-0.5,0-1.3,0.1-1.8
		c1.1-1.3,2-2.7,3.1-4c1.4-0.4,2.9-0.3,4.4-0.4c0.6-1.2,1.1-2.3,1.7-3.5c3.1-0.1,6.2-0.1,9.4-0.1c0.5-0.9,1-1.8,1.5-2.8
		c1-0.8,2-1.6,3.1-2.4c1.8,0,3.6-0.1,5.4-0.1c1.8,1.5,3.4,3.3,4.7,5.3c3.1,0,6.2-0.1,9.3,0.1c0.5,1.1,0.7,2.4,1.6,3.3
		c1.6,0.6,3.5,0.1,4.9,1.1c1,1.4,1.9,2.9,2.9,4.3c-1.3,1.6-3.4,1-5.2,1.3c-0.1,7.3-0.1,14.5,0,21.8c3.4,1.1,7,0.7,10.5,0.7
		c4.1-0.1,8.3,0.4,12.4-0.7c1.1-3.7,0.7-7.6,0.7-11.4c0-3.6,0.3-7.3-0.7-10.8c-1.7,0-3.5,0.1-5.2,0.1c0.1-1.1,0.2-2.3,0.4-3.4
		c1.4-0.7,2.7-1.5,3.9-2.4c9.1-6.8,18.6-13.1,27.4-20.1c1.6,0.1,3.3,0.1,4.5,1.4c2.8,2.3,5.9,4.1,8.4,6.6c0.4,0,1.2,0.1,1.6,0.1
		c0.3-1.6,0.6-3.3,0.9-4.9c2.7,0,5.5,0,8.2,0.1c0.3,3.9-0.1,7.8,0.2,11.6c3.6,5.3,11.3,4.1,16.7,3.1c0.2-7.7,0.3-15.3-0.1-22.9
		c-2-0.1-4.1-0.2-6.1-0.3c0.5-2.2,2.5-3.5,4.2-4.6c8.6-5.8,16.7-12.3,25.3-18.1c4.7,1,7.6,6,12.4,7.3c0.3-1.6-0.3-3.4,0.8-4.7
		c1.6-0.5,3.3-0.3,5-0.3c0.6,0.3,1.7,0.9,2.2,1.2c0,3.7-1.2,7.5,0.5,11c3.1,2.4,8.2,3.9,8.5,8.4c-1.6,0.1-3.2-0.1-4.6-0.7
		c-0.8,11.7-0.1,23.5-0.4,35.3c0.2,1.8-0.5,4.2,1.3,5.3c8.5,5.9,16.7,12.3,25.3,18c4.7,0,9.5-0.1,14.2,0.1c1.3,2.2,2.6,4.3,4.2,6.2
		c0,0.5,0.1,1.4,0.1,1.9c-1.3,0.1-2.6,0.1-3.9,0.2c-0.4,4.4-0.4,8.8-0.1,13.1c4.3-0.1,8.6,0.1,12.9-0.3c0-28.7-0.1-57.4,0-86.2
		c-1.7-0.4-3.3-0.7-5-0.9c0-0.4,0.1-1.3,0.2-1.7c6.8-3,12.9-7.3,19.4-10.9c2.1-1.1,4.4-3.5,6.9-2c6.4,3.9,13,7.6,19.5,11.4
		c1.2,0.9,3.3,1.2,3.1,3.3c-1.4,0-2.8,0.1-4.2,0.1c-0.3,9.6-0.1,19.2-0.1,28.8c7.7,0.1,15.4,0.3,23.1-0.1c0-14,0-28,0-42
		c-0.6-0.1-1.9-0.2-2.5-0.2c0-1.1,0-2.2,0-3.3c7.1-3.9,14.3-7.8,20.9-12.4c1.2,0,2.3,0,3.5,0c1.8,1.3,3.8,2.6,5.6,3.9
		c0.7,0,1.4-0.1,2.1-0.1c0.3-2.2,1.6-4.8,4.2-3.6c2,1.9,1.1,4.9,1.3,7.3c2.3,2,5,3.3,7.6,4.9c0.1,0.7,0.3,2,0.4,2.7
		c-0.7,0.1-2.1,0.2-2.8,0.2c-0.4,19.9,0.1,39.8-0.3,59.7c1.5,0.3,3,0.6,4.5,0.6c12.1,0,24.3-0.1,36.4,0.1c1,2.3,3.3,7.3-0.8,7.6
		c-0.2,4.8,0,9.6-0.1,14.3c2.4,3.7,7.3,3.9,10.6,6.4c0.6,0,1.9,0.1,2.6,0.2c0.1-22.6,0-45.2,0-67.7c-0.2-16.1,0.3-32.2-0.3-48.3
		c-1.3-0.1-2.6-0.2-3.9-0.3c-0.1-2.7-0.1-5.3,0-8c3,0.1,7.7,0.3,7-4.1c9.9-1,20-0.1,30-0.5c0.4,1.1,0.8,2.3,1.2,3.4
		c4.8,2.7,10.7,0.7,16,1c0.2,2.8,0.2,5.5,0,8.3c-1.3,0-2.5,0-3.8,0.1c-1.5,2.2-1,4.9-1.1,7.4c0,13.3,0,26.6,0,39.9
		c0.1,1.6-0.5,3.4,0.8,4.7c1.9-0.6,3.3-2.1,4.8-3.3c4.8-4,9.7-7.8,14.5-11.9c0.6,0,1.7,0,2.3-0.1c5.1,4.4,10.3,8.6,15.5,12.8
		c1.1,0.9,2.4,1.5,3.8,1.8c0-12.4,0-24.8,0-37.2c-1.6-0.2-3.2-0.4-4.9-0.7c0.6-2.4,0.9-4.8,1.5-7.2c1.7-0.7,3.5-0.5,5.3-0.7
		c0.5-1.3,0.9-2.5,1.3-3.8c2.5-0.1,5-0.1,7.6-0.2c0.6-3.6,0.4-7.2,0.4-10.8c2.6-0.4,5.2-0.3,7.8,0c0,3.6-0.1,7.2,0.1,10.8
		c1.9,0.1,3.9,0.2,5.8,0.2c6.8-4.8,13.4-9.8,19.7-15.1c0.8,0,2.3,0,3.1,0c6.5,5,13,10,19.6,15c2.1-0.1,4.3,0.3,6.3-0.4
		c1-3.5,0.2-7.1,0.3-10.7c2.7-0.2,5.4-0.2,8.1,0.1c0,3.6-0.1,7.3,0.1,10.9c1,0,3,0.1,4,0.1l-0.1-1.1l1.1-0.1
		c0.1-7.6-0.1-15.2,0.1-22.8c-1.7-0.6-3.4-1-5.1-1.1c0-4-0.1-7.9,0.1-11.9c2.3,0,4.5,0.1,6.8-0.2c0.4-1.3,0.8-2.5,1.2-3.8
		c9.9,0.1,19.8,0,29.7,0c0.4,1.3,0.8,2.5,1.3,3.8c2.2,0.2,4.5,0.4,6.7,1c-0.1,3.6-0.1,7.2-0.1,10.8c-1.6,0.3-3.1,0.8-4.6,1.4
		c0,26.5,0,53,0,79.5c-0.2,2.6,1.8,5,4.5,4.3c2.5,0.5,3.1-2.4,3.6-4.2c4.1-0.1,8.3,0.3,12.4-0.1c0.7-2.1,0.6-4.3,0.7-6.5
		c4.2,0.1,8.4,0.1,12.6,0.7c-0.1,3-0.1,6,0.2,9c1.4,0.5,2.9,0.9,4.4,1.1c0.8-0.4,1.6-0.8,2.4-1.3c0.4-30.5,0-61,0.2-91.5
		c1.9-0.1,3.8-0.2,5.7-0.4c0.3-5.3,0.1-10.6,0.2-15.8c1.7-0.3,3.5-0.7,5.2-1c0.1-3.7,0-7.4,0-11.1C947-0.2,967.8,0,971.5,0z"/>
</g>
</svg>
