<?xml version="1.0" encoding="UTF-8" ?>
<!DOCTYPE svg PUBLIC "-//W3C//DTD SVG 1.1//EN" "http://www.w3.org/Graphics/SVG/1.1/DTD/svg11.dtd">
<svg width="1920pt" height="234pt" viewBox="0 0 1920 234" version="1.1" xmlns="http://www.w3.org/2000/svg">
<g id="#181818ff">
<path fill="#181818" opacity="1.00" d=" M 800.49 0.00 L 802.63 0.00 C 803.62 7.87 803.76 15.81 804.46 23.71 C 808.36 23.69 812.27 23.70 816.19 23.78 C 816.26 27.66 816.27 31.55 816.26 35.44 C 818.00 35.81 819.76 36.18 821.53 36.54 C 821.52 41.80 821.49 47.06 821.64 52.32 C 823.54 52.46 825.44 52.59 827.37 52.73 C 827.54 83.32 827.26 113.92 827.51 144.52 C 829.81 145.39 832.19 145.32 834.46 144.33 C 834.60 141.33 834.66 138.32 834.65 135.32 C 838.61 134.86 842.60 134.72 846.58 134.39 C 847.13 136.65 847.51 138.95 847.77 141.27 C 851.93 141.24 856.09 141.24 860.26 141.20 C 860.77 142.58 861.31 143.95 861.86 145.33 C 863.67 145.31 865.48 145.29 867.31 145.28 C 867.90 143.24 868.50 141.18 868.46 139.05 C 868.39 113.26 868.44 87.47 868.43 61.68 C 866.87 61.15 865.32 60.63 863.77 60.11 C 863.81 56.56 863.79 53.02 863.68 49.47 C 865.87 49.04 868.08 48.69 870.30 48.40 C 870.77 47.15 871.24 45.91 871.72 44.66 C 881.58 44.64 891.44 44.69 901.31 44.63 C 901.75 45.91 902.20 47.20 902.66 48.49 C 904.91 48.59 907.16 48.63 909.42 48.65 C 909.51 52.62 909.53 56.58 909.50 60.55 C 907.86 60.64 906.25 60.74 904.64 60.83 C 904.28 67.21 904.55 73.61 904.41 80.00 C 904.30 81.95 904.75 83.87 905.45 85.68 C 906.47 85.60 908.50 85.45 909.52 85.37 C 909.62 81.74 909.64 78.12 909.62 74.49 C 912.29 74.38 914.97 74.33 917.66 74.35 C 917.46 78.08 917.23 81.87 918.26 85.52 C 920.20 85.51 922.14 85.51 924.10 85.51 C 930.80 80.78 937.09 75.48 943.77 70.72 C 945.29 69.56 946.96 70.79 948.23 71.71 C 953.81 75.86 959.16 80.32 964.85 84.32 C 966.98 86.04 969.86 85.35 972.40 85.49 C 972.59 81.82 972.61 78.14 972.55 74.47 C 975.15 74.36 977.77 74.36 980.39 74.47 C 980.60 78.00 979.55 81.91 981.16 85.19 C 983.47 85.61 985.86 85.52 988.22 85.55 C 988.71 86.81 989.19 88.08 989.71 89.35 C 991.45 89.48 993.23 89.62 994.99 89.76 C 995.40 92.02 996.00 94.25 996.19 96.55 C 995.11 97.87 993.06 97.48 991.63 98.02 C 991.49 110.63 991.52 123.25 991.62 135.86 C 998.09 131.29 1004.07 126.08 1010.19 121.07 C 1011.16 120.03 1012.80 120.15 1013.80 121.10 C 1020.07 126.06 1026.08 131.33 1032.50 136.09 C 1032.92 134.10 1033.30 132.08 1033.27 130.04 C 1033.14 119.02 1033.24 108.00 1033.20 96.98 C 1033.13 92.51 1033.70 87.94 1032.40 83.59 C 1031.00 83.57 1029.62 83.54 1028.25 83.52 C 1028.18 80.57 1028.26 77.62 1028.55 74.69 C 1033.00 75.81 1037.61 75.67 1042.17 75.58 C 1042.70 75.23 1043.75 74.52 1044.27 74.17 C 1044.58 73.16 1044.90 72.14 1045.23 71.14 C 1055.33 70.77 1065.46 70.65 1075.55 71.23 C 1075.60 71.92 1075.70 73.31 1075.75 74.00 C 1076.16 74.32 1076.99 74.98 1077.41 75.31 C 1079.08 75.31 1080.75 75.31 1082.45 75.32 C 1082.53 78.02 1082.56 80.72 1082.54 83.42 C 1081.21 83.52 1079.90 83.62 1078.59 83.71 C 1078.09 122.49 1078.44 161.30 1078.42 200.09 C 1083.12 198.62 1087.90 196.76 1091.62 193.44 C 1091.37 188.73 1091.56 184.01 1091.35 179.31 C 1087.71 177.80 1089.60 173.88 1090.51 171.24 C 1104.19 170.76 1117.93 171.88 1131.56 170.65 C 1131.36 150.92 1131.47 131.19 1131.50 111.47 C 1130.82 111.36 1129.45 111.15 1128.77 111.05 C 1128.73 110.02 1128.71 109.00 1128.70 107.98 C 1131.38 106.58 1133.99 105.04 1136.40 103.21 C 1136.38 100.63 1136.62 98.05 1137.41 95.59 C 1138.43 95.61 1139.46 95.63 1140.50 95.66 C 1141.29 97.03 1142.07 98.41 1142.88 99.79 C 1145.28 98.43 1147.65 97.00 1149.96 95.48 C 1150.72 95.49 1152.25 95.52 1153.02 95.54 C 1159.81 100.07 1167.19 103.67 1174.02 108.13 C 1175.11 110.16 1172.91 110.97 1171.63 112.00 C 1171.59 125.80 1171.65 139.59 1171.60 153.39 C 1179.29 153.73 1186.99 153.56 1194.69 153.51 C 1194.65 143.91 1194.87 134.30 1194.58 124.70 C 1193.20 124.66 1191.83 124.63 1190.49 124.60 C 1190.53 124.17 1190.63 123.32 1190.68 122.89 C 1198.58 118.69 1206.04 113.68 1213.99 109.58 C 1217.47 109.32 1220.23 112.44 1223.27 113.86 C 1228.77 117.51 1235.18 119.88 1240.09 124.35 C 1238.25 124.54 1236.49 124.71 1234.68 124.86 C 1234.46 153.73 1234.70 182.61 1234.56 211.49 C 1238.74 212.15 1243.47 213.18 1247.48 211.61 C 1248.14 207.35 1247.69 203.01 1247.52 198.73 C 1246.06 198.61 1244.61 198.49 1243.18 198.37 C 1244.58 195.56 1245.94 192.58 1248.33 190.45 C 1254.06 189.30 1260.85 192.19 1265.73 187.96 C 1272.82 182.56 1280.23 177.61 1287.31 172.21 C 1289.13 171.12 1288.43 168.76 1288.67 167.00 C 1288.56 155.45 1288.74 143.89 1288.56 132.34 C 1286.95 132.33 1285.35 132.31 1283.77 132.30 C 1284.26 127.68 1289.32 126.21 1292.50 123.70 C 1293.42 120.35 1292.81 116.93 1292.74 113.54 C 1293.98 111.16 1297.08 111.54 1299.30 111.90 C 1301.23 112.70 1300.32 115.32 1300.97 116.88 C 1305.32 114.83 1308.77 111.39 1312.97 109.09 C 1319.23 113.87 1325.70 118.37 1332.04 123.05 C 1335.70 125.74 1339.70 128.03 1342.75 131.47 C 1340.78 131.97 1338.51 131.39 1336.80 132.60 C 1335.95 135.30 1336.38 138.19 1336.30 140.97 C 1336.46 145.63 1336.00 150.31 1336.53 154.95 C 1338.20 156.66 1340.88 156.07 1343.06 156.26 C 1346.68 156.40 1351.08 155.86 1353.14 152.44 C 1353.55 148.54 1353.20 144.61 1353.36 140.70 C 1356.12 140.70 1358.90 140.71 1361.68 140.74 C 1361.98 142.49 1362.31 144.24 1362.67 145.99 C 1366.69 143.54 1370.15 140.27 1374.20 137.86 C 1375.80 136.68 1377.58 138.21 1378.96 139.05 C 1388.24 145.85 1397.56 152.59 1406.94 159.26 C 1408.53 160.05 1408.60 161.83 1408.91 163.36 C 1407.07 163.31 1405.23 163.26 1403.42 163.22 C 1402.53 170.58 1402.39 178.13 1403.50 185.48 C 1411.12 186.43 1418.92 186.47 1426.56 185.51 C 1426.64 178.22 1426.58 170.92 1426.61 163.63 C 1424.96 163.52 1423.31 163.42 1421.69 163.31 C 1422.48 161.38 1422.97 159.12 1424.64 157.71 C 1426.09 157.31 1427.61 157.23 1429.15 157.04 C 1429.71 155.89 1430.28 154.75 1430.88 153.61 C 1433.93 153.58 1436.99 153.57 1440.06 153.49 C 1441.52 151.74 1442.73 149.52 1444.89 148.51 C 1446.63 148.25 1448.42 148.24 1450.21 148.16 C 1451.94 149.82 1453.57 151.58 1455.04 153.49 C 1458.03 153.58 1461.02 153.60 1464.02 153.63 C 1464.62 154.83 1465.24 156.03 1465.88 157.23 C 1467.33 157.29 1468.82 157.36 1470.31 157.43 C 1471.63 159.29 1472.80 161.26 1473.82 163.32 C 1471.95 163.43 1470.16 163.52 1468.34 163.61 C 1468.14 167.86 1468.15 172.12 1468.37 176.38 C 1473.34 176.87 1478.34 176.62 1483.34 176.50 C 1483.32 181.09 1483.30 185.68 1483.60 190.25 C 1487.24 190.36 1490.91 190.34 1494.55 189.88 C 1494.85 188.07 1494.22 185.88 1495.36 184.35 C 1497.22 183.39 1499.42 183.57 1501.48 183.31 C 1501.51 180.46 1501.51 177.61 1501.44 174.76 C 1499.57 174.69 1497.64 174.61 1495.81 174.52 C 1496.80 171.12 1500.22 169.72 1502.81 167.76 C 1510.27 162.29 1517.85 156.98 1525.24 151.41 C 1528.16 153.27 1530.99 155.28 1533.69 157.48 C 1534.06 157.56 1534.80 157.72 1535.17 157.81 C 1535.62 156.73 1536.09 155.66 1536.58 154.59 C 1538.85 154.65 1541.13 154.70 1543.43 154.75 C 1543.52 157.93 1543.54 161.11 1543.54 164.29 C 1547.19 167.95 1553.12 169.50 1555.11 174.59 C 1553.22 174.63 1551.41 174.65 1549.56 174.66 C 1549.40 177.88 1549.41 181.11 1549.61 184.34 C 1557.42 184.32 1565.24 184.36 1573.06 184.36 C 1575.79 184.50 1578.36 182.99 1580.14 180.98 C 1580.67 176.88 1580.30 172.73 1580.62 168.61 C 1583.57 168.55 1586.57 168.70 1589.47 169.45 C 1589.42 170.98 1589.39 172.51 1589.39 174.04 C 1594.33 171.71 1598.13 167.63 1602.94 165.08 C 1611.72 171.66 1620.71 177.97 1629.58 184.44 C 1632.19 186.54 1635.92 187.84 1636.80 191.45 C 1634.63 191.51 1632.50 191.54 1630.37 191.56 C 1630.20 198.88 1630.23 206.21 1630.34 213.53 C 1635.11 213.65 1639.89 213.65 1644.67 213.59 C 1644.79 196.90 1644.79 180.21 1644.67 163.52 C 1641.92 163.50 1639.17 163.47 1636.45 163.33 C 1638.28 160.15 1641.80 158.74 1644.60 156.60 C 1654.25 149.55 1663.97 142.60 1673.61 135.53 C 1674.63 134.86 1676.01 133.77 1677.27 134.67 C 1681.21 137.15 1684.83 140.11 1688.49 142.99 C 1688.91 141.42 1689.28 139.85 1689.72 138.29 C 1692.90 138.24 1696.10 138.26 1699.30 138.40 C 1699.26 142.47 1699.26 146.55 1699.37 150.62 C 1704.80 154.96 1711.24 158.16 1715.96 163.32 C 1712.87 163.50 1709.80 163.52 1706.73 163.64 C 1706.73 166.76 1706.46 169.90 1706.93 172.99 C 1708.27 174.40 1710.35 174.36 1712.14 174.85 C 1712.20 177.75 1712.33 180.65 1712.60 183.55 C 1718.91 183.89 1725.23 183.79 1731.56 183.63 C 1731.96 185.60 1732.34 187.56 1732.74 189.54 C 1739.01 189.27 1746.05 191.17 1751.47 187.01 C 1752.25 182.95 1752.28 178.80 1752.18 174.68 C 1754.89 173.86 1757.76 173.57 1760.51 174.50 C 1760.87 176.08 1761.25 177.65 1761.67 179.23 C 1765.16 176.89 1768.40 174.18 1771.93 171.87 C 1773.14 170.99 1774.89 170.70 1776.16 171.74 C 1782.11 175.79 1787.71 180.36 1793.70 184.34 C 1795.51 185.62 1797.36 183.88 1798.86 182.92 C 1807.08 176.79 1815.45 170.88 1823.74 164.84 C 1825.97 163.50 1828.29 160.20 1831.20 161.73 C 1835.04 164.20 1838.44 167.30 1842.41 169.61 C 1842.76 167.92 1843.19 166.23 1843.60 164.53 C 1846.50 164.75 1849.39 165.08 1852.29 165.43 C 1852.78 169.90 1850.45 176.05 1855.03 178.93 C 1858.62 181.78 1862.62 184.10 1866.17 187.03 C 1867.23 187.80 1867.34 189.20 1867.79 190.36 C 1865.30 190.38 1862.83 190.36 1860.38 190.37 C 1860.28 194.31 1860.22 198.26 1860.36 202.21 C 1866.49 198.98 1871.65 194.22 1877.42 190.41 C 1881.40 187.94 1884.72 184.34 1889.08 182.53 C 1894.15 183.91 1897.67 188.72 1902.48 190.96 C 1902.57 189.47 1902.68 187.98 1902.81 186.50 C 1905.75 186.32 1908.70 186.29 1911.67 186.35 C 1911.75 189.80 1911.41 193.31 1912.00 196.73 C 1913.46 200.19 1917.28 201.64 1920.00 203.95 L 1920.00 234.00 L 0.00 234.00 L 0.00 181.40 C 1.80 181.19 3.55 181.62 5.21 182.27 C 6.51 182.27 7.80 182.27 9.10 182.26 C 9.09 185.10 9.75 187.86 11.71 190.00 C 10.88 192.26 9.25 196.29 12.46 197.37 C 17.11 197.67 22.20 198.55 26.54 196.43 C 26.49 194.45 26.47 192.47 26.46 190.50 C 30.84 190.43 35.21 190.44 39.58 190.54 C 39.51 194.16 39.36 197.86 40.50 201.36 C 41.32 201.35 42.98 201.33 43.80 201.32 C 44.18 204.05 44.36 206.80 44.47 209.56 C 46.09 209.46 47.71 209.37 49.33 209.27 C 49.54 202.10 49.34 194.93 49.47 187.77 C 56.00 184.93 62.66 182.37 69.41 180.11 C 70.26 177.61 70.50 174.99 70.49 172.37 C 72.40 170.57 74.49 168.91 76.10 166.81 C 76.61 164.38 76.36 161.87 76.79 159.43 C 77.37 159.51 78.54 159.67 79.12 159.75 C 79.41 162.28 79.37 164.84 79.42 167.39 C 81.28 168.93 83.36 170.30 84.79 172.28 C 85.44 174.84 85.33 177.51 85.58 180.13 C 89.45 181.33 93.10 183.14 96.97 184.35 C 98.75 185.11 100.27 183.61 101.65 182.75 C 108.74 177.51 115.88 172.33 123.03 167.18 C 127.73 170.00 131.72 173.89 136.68 176.30 C 136.73 174.45 136.78 172.61 136.82 170.76 C 139.62 170.59 142.42 170.56 145.23 170.63 C 145.25 174.78 145.31 178.93 145.38 183.08 C 146.95 184.21 148.41 185.59 150.23 186.34 C 154.22 186.90 158.27 186.43 162.29 186.35 C 162.32 184.69 162.36 183.05 162.39 181.40 C 160.35 181.31 158.31 181.23 156.27 181.13 C 156.62 179.99 156.81 178.66 157.96 178.02 C 161.47 175.47 165.12 173.14 168.42 170.32 C 168.36 167.12 168.40 163.92 168.62 160.73 C 170.78 160.75 172.95 160.77 175.12 160.78 C 175.66 162.11 176.20 163.44 176.75 164.78 C 179.02 163.03 181.19 161.16 183.55 159.53 C 184.71 158.69 186.43 157.76 187.74 158.90 C 197.24 165.48 206.36 172.62 215.97 179.06 C 215.85 179.59 215.61 180.67 215.49 181.21 C 213.80 181.22 212.11 181.23 210.42 181.26 C 210.17 184.83 209.91 188.42 210.22 191.99 C 210.36 193.19 210.45 194.64 211.70 195.25 C 215.50 197.28 219.81 198.22 223.46 200.59 C 223.49 202.86 223.53 205.14 223.59 207.41 C 228.47 207.49 233.35 207.50 238.24 207.45 C 238.33 205.09 238.24 202.71 238.65 200.38 C 240.89 198.50 244.09 198.27 246.30 196.36 C 246.93 190.13 246.47 183.83 246.41 177.58 C 244.68 177.52 242.93 177.46 241.20 177.39 C 241.56 176.01 242.34 175.02 243.54 174.42 C 256.74 168.18 269.72 161.47 282.82 155.01 C 284.21 154.21 285.85 154.01 287.27 154.87 C 294.76 158.46 302.03 162.53 309.65 165.85 C 309.72 163.06 309.74 160.28 309.75 157.50 C 312.27 157.34 314.81 157.32 317.34 157.43 C 317.26 161.63 317.28 165.84 317.59 170.04 C 321.40 172.65 327.16 172.91 329.43 177.29 C 327.52 177.44 325.62 177.56 323.72 177.68 C 323.55 188.29 323.79 198.90 323.58 209.51 C 326.75 210.72 330.15 210.54 333.46 210.35 C 334.17 202.72 332.87 194.99 334.25 187.43 C 336.96 187.47 339.66 187.48 342.37 187.44 C 342.58 180.40 342.41 173.36 342.51 166.32 C 340.84 166.00 339.17 165.69 337.50 165.39 C 337.54 164.96 337.62 164.12 337.66 163.70 C 338.65 162.34 339.64 160.98 340.63 159.62 C 342.15 159.52 343.67 159.45 345.18 159.22 C 346.44 158.49 346.96 156.99 347.83 155.88 C 350.54 155.82 353.26 155.78 355.99 155.67 C 357.79 152.93 360.17 149.57 363.97 150.24 C 367.75 150.03 369.18 154.20 371.92 155.96 C 374.65 156.41 377.45 156.13 380.21 156.16 C 380.39 157.19 380.57 158.23 380.76 159.28 C 382.90 159.57 385.67 158.79 387.14 160.87 C 388.44 162.09 388.53 163.95 388.98 165.58 C 387.52 165.62 386.06 165.67 384.61 165.71 C 384.27 172.97 384.33 180.24 384.57 187.50 C 392.18 187.55 399.78 187.52 407.40 187.52 C 407.68 180.16 407.57 172.79 407.49 165.42 C 405.01 165.43 402.52 165.43 400.05 165.33 C 400.64 164.19 401.44 163.23 402.45 162.46 C 412.44 155.48 422.24 148.23 432.12 141.10 C 433.46 140.28 435.23 138.86 436.81 139.99 C 440.88 142.43 444.27 145.88 448.53 148.04 C 448.60 146.25 448.70 144.46 448.77 142.67 C 451.61 142.37 454.49 142.36 457.34 142.72 C 457.54 146.72 456.83 150.87 457.81 154.76 C 461.36 158.16 465.64 160.70 469.70 163.45 C 469.72 163.95 469.77 164.95 469.79 165.45 C 467.39 165.46 464.99 165.47 462.60 165.50 C 462.64 181.06 462.44 196.61 462.71 212.17 C 467.32 212.25 471.97 212.59 476.54 211.76 C 476.92 204.75 477.78 197.65 476.51 190.67 C 474.34 190.60 472.19 190.51 470.03 190.39 C 471.87 186.20 474.60 182.51 476.92 178.59 C 483.76 178.31 490.60 178.48 497.44 178.47 C 499.12 173.34 498.22 167.92 498.60 162.65 C 496.75 159.50 492.90 160.53 489.89 160.19 C 490.68 158.91 491.37 157.47 492.70 156.65 C 505.60 147.69 518.08 138.14 531.01 129.23 C 535.83 132.40 540.18 136.26 545.25 139.04 C 545.35 137.20 545.47 135.37 545.57 133.53 C 548.82 133.51 552.07 133.38 555.29 132.87 C 555.75 137.52 555.12 142.24 555.86 146.85 C 560.87 151.85 568.24 154.31 572.26 160.24 C 569.74 160.36 567.21 160.21 564.71 160.56 C 562.59 162.99 563.92 166.63 563.57 169.58 C 568.48 169.83 573.07 167.88 577.77 166.81 C 582.38 165.70 586.98 164.55 591.56 163.30 C 592.57 158.44 592.10 153.48 592.27 148.57 C 589.77 148.01 587.23 147.68 584.69 147.53 C 593.74 131.10 603.90 115.29 613.25 99.03 C 614.22 97.16 614.23 95.01 614.49 92.97 C 613.52 92.32 612.55 91.67 611.59 91.01 C 612.71 89.30 613.82 87.59 614.92 85.86 C 616.94 86.56 618.37 88.14 619.54 89.87 C 619.61 90.23 619.73 90.94 619.80 91.30 C 619.14 91.67 617.82 92.41 617.16 92.79 C 616.90 98.99 621.43 103.63 624.18 108.76 C 631.71 121.71 639.77 134.37 647.01 147.48 C 644.76 147.76 642.51 148.05 640.28 148.33 C 640.42 160.39 640.27 172.44 640.36 184.49 C 644.36 184.65 648.36 184.63 652.37 184.42 C 652.59 178.77 652.57 173.12 652.42 167.48 C 650.54 167.40 648.69 167.34 646.83 167.28 C 648.80 163.23 650.84 158.05 655.72 156.92 C 669.53 152.57 683.36 148.26 697.13 143.76 C 702.29 142.02 707.68 140.87 712.59 138.45 C 712.31 127.72 712.88 116.96 712.33 106.25 C 710.65 105.46 708.68 105.59 706.92 105.23 C 707.81 104.07 708.73 102.88 709.96 102.03 C 717.84 96.55 725.55 90.84 733.33 85.23 C 734.65 84.36 736.15 83.08 737.84 83.89 C 741.49 85.73 744.16 89.22 748.23 90.32 C 748.36 89.01 748.50 87.70 748.64 86.39 C 751.18 86.36 753.73 86.39 756.28 86.47 C 756.35 89.94 755.84 93.49 756.66 96.89 C 759.17 99.63 762.48 101.43 765.53 103.48 C 765.57 103.95 765.65 104.88 765.69 105.35 C 763.98 105.73 762.28 106.13 760.59 106.54 C 760.68 128.04 760.60 149.54 760.62 171.04 C 760.42 173.59 762.92 174.98 764.62 176.37 C 768.58 179.09 772.21 182.33 776.59 184.37 C 776.74 140.49 776.55 96.60 776.69 52.71 C 778.28 52.64 779.85 52.56 781.46 52.50 C 783.00 47.30 782.03 41.82 782.30 36.49 C 784.11 36.14 785.92 35.78 787.74 35.44 C 788.21 31.54 788.23 27.62 788.37 23.71 C 792.09 23.74 795.81 23.71 799.53 23.56 C 799.43 15.68 800.70 7.87 800.49 0.00 Z" />
</g>
</svg>
