<svg 
 xmlns="http://www.w3.org/2000/svg"
 xmlns:xlink="http://www.w3.org/1999/xlink"
 width="0.889in" height="0.764in">
<path fill-rule="evenodd"  fill="rgb(255, 255, 255)"
 d="M49.000,44.000 C47.343,44.000 46.000,42.657 46.000,41.000 C46.000,39.343 47.343,38.000 49.000,38.000 C53.971,38.000 58.000,33.971 58.000,29.000 C58.000,26.320 56.822,23.920 54.963,22.272 C54.771,22.102 54.572,21.941 54.366,21.787 C54.353,21.777 54.339,21.767 54.326,21.757 C54.132,21.613 53.931,21.479 53.725,21.351 C53.693,21.331 53.661,21.312 53.629,21.292 C53.438,21.177 53.241,21.068 53.041,20.966 C52.986,20.939 52.930,20.912 52.874,20.886 C52.690,20.797 52.503,20.714 52.313,20.637 C52.230,20.605 52.145,20.576 52.061,20.545 C51.890,20.483 51.718,20.422 51.542,20.370 C51.426,20.336 51.306,20.308 51.188,20.279 C51.036,20.241 50.885,20.200 50.731,20.170 C50.569,20.139 50.403,20.118 50.238,20.095 C50.119,20.079 50.002,20.056 49.882,20.045 C49.592,20.017 49.298,20.000 49.000,20.000 C48.906,20.000 48.815,20.011 48.722,20.014 C48.631,19.501 48.515,18.998 48.380,18.502 C48.346,18.381 48.301,18.265 48.266,18.145 C48.154,17.770 48.039,17.397 47.902,17.034 C47.861,16.924 47.810,16.819 47.767,16.710 C47.619,16.340 47.466,15.973 47.294,15.617 C47.252,15.531 47.204,15.449 47.161,15.364 C46.972,14.991 46.777,14.623 46.562,14.267 C43.595,9.318 38.192,6.000 32.000,6.000 C25.808,6.000 20.405,9.318 17.438,14.267 C17.223,14.623 17.027,14.991 16.839,15.364 C16.796,15.449 16.748,15.531 16.706,15.617 C16.534,15.973 16.381,16.340 16.233,16.710 C16.190,16.819 16.139,16.924 16.098,17.034 C15.961,17.397 15.846,17.770 15.734,18.145 C15.698,18.265 15.654,18.381 15.620,18.502 C15.484,18.998 15.369,19.501 15.278,20.014 C15.185,20.011 15.094,20.000 15.000,20.000 C14.702,20.000 14.408,20.017 14.118,20.045 C13.998,20.056 13.881,20.079 13.762,20.095 C13.597,20.118 13.431,20.139 13.269,20.170 C13.115,20.200 12.964,20.241 12.812,20.279 C12.694,20.308 12.574,20.336 12.458,20.370 C12.282,20.422 12.110,20.483 11.939,20.545 C11.855,20.576 11.770,20.605 11.687,20.637 C11.497,20.714 11.310,20.797 11.126,20.886 C11.070,20.912 11.014,20.939 10.959,20.966 C10.759,21.068 10.562,21.177 10.371,21.292 C10.339,21.312 10.306,21.331 10.275,21.351 C10.069,21.479 9.868,21.613 9.674,21.757 C9.661,21.767 9.647,21.777 9.634,21.787 C9.428,21.941 9.229,22.102 9.037,22.272 C7.178,23.920 6.000,26.320 6.000,29.000 C6.000,33.971 10.029,38.000 15.000,38.000 C16.657,38.000 18.000,39.343 18.000,41.000 C18.000,42.657 16.657,44.000 15.000,44.000 C6.716,44.000 -0.000,37.284 -0.000,29.000 C-0.000,22.242 4.470,16.532 10.613,14.655 C13.952,6.086 22.248,0.000 32.000,0.000 C41.752,0.000 50.048,6.086 53.387,14.655 C59.530,16.532 64.000,22.242 64.000,29.000 C64.000,37.284 57.284,44.000 49.000,44.000 ZM20.770,36.993 L20.776,36.987 C20.778,36.985 20.780,36.982 20.782,36.980 L29.770,26.993 L29.778,27.000 C30.327,26.391 31.115,26.000 32.000,26.000 C32.885,26.000 33.673,26.391 34.222,27.000 L34.230,26.993 L43.220,36.982 C43.220,36.983 43.221,36.983 43.222,36.984 L43.230,36.993 L43.230,36.993 C43.648,37.458 43.923,38.054 43.986,38.713 C43.986,38.715 43.986,38.717 43.986,38.719 C43.995,38.811 44.000,38.904 44.000,38.998 C44.000,38.999 44.000,39.000 44.000,39.000 C44.000,40.657 42.657,42.000 41.000,42.000 C40.967,42.000 40.935,41.998 40.903,41.997 C40.883,41.997 40.863,41.997 40.843,41.996 C40.822,41.995 40.801,41.993 40.780,41.991 C40.747,41.988 40.713,41.986 40.680,41.983 C40.669,41.981 40.657,41.980 40.646,41.978 C40.602,41.973 40.558,41.967 40.514,41.960 C40.513,41.960 40.513,41.960 40.512,41.960 C39.825,41.847 39.216,41.502 38.770,41.007 L38.770,41.007 L35.000,36.818 L35.000,52.000 C35.000,53.657 33.657,55.000 32.000,55.000 C30.343,55.000 29.000,53.657 29.000,52.000 L29.000,36.818 L25.230,41.007 L25.230,41.007 C24.784,41.501 24.176,41.847 23.490,41.959 C23.488,41.960 23.487,41.960 23.486,41.960 C23.443,41.967 23.399,41.973 23.356,41.978 C23.344,41.980 23.332,41.981 23.320,41.983 C23.287,41.986 23.254,41.988 23.222,41.991 C23.200,41.993 23.179,41.995 23.157,41.996 C23.138,41.997 23.119,41.997 23.100,41.997 C23.066,41.998 23.033,42.000 23.000,42.000 C21.861,42.000 20.870,41.365 20.362,40.430 C20.131,40.005 20.000,39.518 20.000,39.000 C20.000,38.228 20.292,37.525 20.770,36.993 L20.770,36.993 Z"/>
</svg>