<svg 
 xmlns="http://www.w3.org/2000/svg"
 xmlns:xlink="http://www.w3.org/1999/xlink"
 width="0.292in" height="0.278in">
<defs>
<filter id="Filter_0">
    <feFlood flood-color="rgb(228, 228, 228)" flood-opacity="1" result="floodOut" />
    <feComposite operator="atop" in="floodOut" in2="SourceGraphic" result="compOut" />
    <feBlend mode="normal" in="compOut" in2="SourceGraphic" />
</filter>

</defs>
<g filter="url(#Filter_0)">
<path fill-rule="evenodd"  fill="rgb(255, 255, 255)"
 d="M18.454,20.000 L3.182,20.000 C1.776,20.000 0.636,18.881 0.636,17.500 L0.636,2.500 C0.636,1.119 1.776,-0.000 3.182,-0.000 L18.454,-0.000 C19.860,-0.000 21.000,1.119 21.000,2.500 L21.000,17.500 C21.000,18.881 19.860,20.000 18.454,20.000 ZM10.818,6.125 C9.231,6.125 7.866,7.047 7.240,8.375 L7.236,8.375 C7.230,8.389 7.225,8.404 7.219,8.417 C7.182,8.500 7.148,8.584 7.117,8.669 C7.102,8.709 7.085,8.749 7.071,8.790 C7.042,8.877 7.018,8.966 6.996,9.056 C6.985,9.097 6.972,9.138 6.963,9.181 C6.942,9.275 6.928,9.372 6.914,9.468 C6.909,9.507 6.900,9.545 6.896,9.585 C6.881,9.721 6.873,9.860 6.873,10.000 C6.873,12.140 8.639,13.875 10.818,13.875 C12.997,13.875 14.764,12.140 14.764,10.000 C14.764,9.860 14.755,9.721 14.740,9.585 C14.736,9.545 14.728,9.507 14.722,9.468 C14.709,9.372 14.694,9.275 14.673,9.181 C14.664,9.138 14.651,9.097 14.641,9.056 C14.618,8.966 14.594,8.877 14.565,8.790 C14.551,8.749 14.535,8.709 14.520,8.669 C14.488,8.584 14.455,8.500 14.417,8.417 C14.411,8.404 14.406,8.389 14.400,8.375 L14.396,8.375 C13.770,7.047 12.405,6.125 10.818,6.125 ZM18.709,3.250 C18.709,2.697 18.253,2.250 17.691,2.250 L15.655,2.250 C15.092,2.250 14.636,2.697 14.636,3.250 L14.636,5.250 C14.636,5.802 15.092,6.250 15.655,6.250 L17.691,6.250 C18.253,6.250 18.709,5.802 18.709,5.250 L18.709,3.250 ZM18.709,8.375 L16.832,8.375 C16.977,8.892 17.054,9.437 17.054,10.000 C17.054,13.382 14.262,16.125 10.818,16.125 C7.374,16.125 4.582,13.382 4.582,10.000 C4.582,9.437 4.659,8.892 4.804,8.375 L2.927,8.375 L2.927,16.750 C2.927,17.302 3.383,17.750 3.945,17.750 L17.691,17.750 C18.253,17.750 18.709,17.302 18.709,16.750 L18.709,8.375 Z"/>
</g>
</svg>