<svg 
 xmlns="http://www.w3.org/2000/svg"
 xmlns:xlink="http://www.w3.org/1999/xlink"
 width="0.889in" height="0.75in">
<path fill-rule="evenodd"  fill="rgb(255, 255, 255)"
 d="M62.708,18.466 L62.678,18.487 C62.678,18.487 62.677,18.488 62.677,18.488 L36.708,36.467 L36.706,36.464 C36.221,36.801 35.635,37.000 35.000,37.000 C34.384,37.000 33.813,36.813 33.337,36.495 L33.336,36.496 L33.325,36.489 C33.324,36.488 33.322,36.487 33.321,36.486 L19.900,27.539 L6.000,35.716 L6.000,48.000 L61.000,48.000 C62.657,48.000 64.000,49.343 64.000,51.000 C64.000,52.657 62.657,54.000 61.000,54.000 L3.000,54.000 C1.343,54.000 -0.000,52.657 -0.000,51.000 L-0.000,3.000 C-0.000,1.343 1.343,0.000 3.000,0.000 C4.657,0.000 6.000,1.343 6.000,3.000 L6.000,28.755 L18.479,21.414 L18.485,21.424 C18.931,21.161 19.444,21.000 20.000,21.000 C20.616,21.000 21.187,21.187 21.664,21.505 L21.664,21.504 L21.675,21.511 C21.676,21.512 21.678,21.513 21.679,21.514 L34.968,30.373 L59.292,13.533 L59.294,13.536 C59.779,13.200 60.365,13.000 61.000,13.000 C62.657,13.000 64.000,14.343 64.000,16.000 C64.000,17.022 63.487,17.922 62.706,18.464 L62.708,18.466 Z"/>
</svg>