<svg 
 xmlns="http://www.w3.org/2000/svg"
 xmlns:xlink="http://www.w3.org/1999/xlink"
 width="0.292in" height="0.25in">
<defs>
<filter id="Filter_0">
    <feFlood flood-color="rgb(228, 228, 228)" flood-opacity="1" result="floodOut" />
    <feComposite operator="atop" in="floodOut" in2="SourceGraphic" result="compOut" />
    <feBlend mode="normal" in="compOut" in2="SourceGraphic" />
</filter>

</defs>
<g filter="url(#Filter_0)">
<path fill-rule="evenodd"  fill="rgb(255, 255, 255)"
 d="M13.851,0.876 C15.469,0.848 16.330,1.427 17.153,2.163 C17.851,2.104 18.759,1.721 19.293,1.455 C19.467,1.362 19.640,1.268 19.813,1.175 C19.508,1.986 19.094,2.620 18.458,3.101 C18.316,3.208 18.176,3.353 17.999,3.421 C17.999,3.424 17.999,3.427 17.999,3.431 C18.906,3.421 19.653,3.020 20.364,2.802 C20.364,2.805 20.364,2.809 20.364,2.812 C19.991,3.395 19.486,3.985 18.947,4.409 C18.730,4.578 18.512,4.748 18.295,4.918 C18.307,5.860 18.280,6.760 18.101,7.552 C17.058,12.158 14.293,15.285 9.917,16.624 C8.345,17.105 5.806,17.303 4.005,16.864 C3.113,16.646 2.306,16.401 1.549,16.075 C1.129,15.895 0.739,15.699 0.367,15.476 C0.245,15.403 0.122,15.330 0.000,15.257 C0.406,15.269 0.881,15.379 1.335,15.307 C1.746,15.242 2.149,15.259 2.528,15.177 C3.473,14.974 4.312,14.704 5.035,14.289 C5.385,14.088 5.917,13.851 6.166,13.560 C5.697,13.569 5.271,13.462 4.923,13.341 C3.571,12.872 2.785,12.011 2.273,10.716 C2.682,10.760 3.862,10.865 4.138,10.636 C3.622,10.608 3.127,10.315 2.772,10.097 C1.685,9.429 0.798,8.308 0.805,6.584 C0.948,6.651 1.091,6.717 1.233,6.784 C1.506,6.897 1.784,6.958 2.110,7.024 C2.247,7.052 2.523,7.131 2.680,7.073 C2.674,7.073 2.667,7.073 2.660,7.073 C2.450,6.833 2.107,6.673 1.896,6.415 C1.198,5.563 0.545,4.253 0.958,2.692 C1.063,2.296 1.229,1.947 1.406,1.624 C1.413,1.628 1.420,1.631 1.427,1.634 C1.508,1.801 1.689,1.924 1.804,2.063 C2.160,2.497 2.600,2.887 3.047,3.231 C4.573,4.403 5.947,5.123 8.154,5.656 C8.713,5.791 9.360,5.895 10.029,5.896 C9.841,5.359 9.901,4.489 10.049,3.970 C10.421,2.662 11.229,1.720 12.414,1.215 C12.697,1.095 13.011,1.007 13.341,0.936 C13.511,0.916 13.681,0.896 13.851,0.876 Z"/>
</g>
</svg>